<svg width="555" height="253" viewBox="0 0 555 253" fill="none" xmlns="http://www.w3.org/2000/svg">
<path d="M430.905 60.286C431.881 62.0822 433.136 63.712 434.623 65.1146C438.383 68.6307 442.402 71.8589 446.646 74.7718L452.827 79.2624C456.593 82.1112 460.456 84.767 463.787 86.9398L470.596 91.4304L472.045 92.3961C476.873 95.4381 481.316 98.4319 485.854 101.522C505.169 114.704 514.826 136.24 511.301 156.375C509.329 166.741 504.162 176.23 496.526 183.512C488.163 191.449 477.879 197.073 466.685 199.832C454.773 202.614 442.553 203.847 430.325 203.502H424.676C422.551 203.502 420.427 203.502 418.302 203.502C403.998 203.774 389.695 202.935 375.521 200.991C374.361 200.808 373.27 200.321 372.358 199.58C371.447 198.84 370.748 197.871 370.331 196.773C369.915 195.676 369.795 194.487 369.986 193.328C370.176 192.17 370.67 191.082 371.416 190.175L401.788 153.091C402.439 152.321 403.254 151.704 404.172 151.287C405.091 150.869 406.09 150.661 407.099 150.677H418.109H425.158C434.602 151.163 444.069 150.514 453.358 148.746C455.04 148.299 456.661 147.651 458.187 146.814C457.511 146.085 456.767 145.422 455.965 144.835C451.812 141.986 447.515 139.185 443.362 136.481C439.21 133.777 435.395 131.315 431.291 128.514C427.186 125.713 424.241 123.685 421.199 121.368C419.509 120.064 417.723 118.808 415.984 117.505C410.59 113.782 405.414 109.752 400.484 105.433C400.209 111.621 399.105 117.743 397.201 123.637L396.38 125.955C385.867 151.158 366.517 171.659 341.961 183.608C310.479 198.625 264.173 200.074 231.29 196.404C230.414 196.314 229.566 196.051 228.794 195.629C228.021 195.207 227.341 194.635 226.792 193.947C226.244 193.259 225.838 192.469 225.599 191.622C225.36 190.775 225.291 189.889 225.398 189.016V187.954C225.54 186.68 226.042 185.474 226.847 184.477L256.929 147.78C257.549 147.021 258.33 146.411 259.215 145.993C260.101 145.575 261.069 145.361 262.048 145.366H262.482C286.046 145.366 306.664 141.986 319.122 136.047C329.89 130.88 343.265 118.808 346.838 107.51C347.524 105.974 347.834 104.296 347.742 102.617C347.65 100.937 347.157 99.3038 346.307 97.8524C344.955 95.3415 339.982 88.485 323.565 78.1518C319.315 75.4478 314.583 72.7438 309.513 70.1363C299.856 65.3078 295.028 64.8249 291.744 69.074L283.294 79.7935C265.766 102.15 247.611 125.279 228.296 147.635C225.978 150.291 223.467 152.947 221.488 155.651C214.168 164.719 206.281 173.315 197.876 181.387L193.433 185.298C177.902 198.735 158.005 206.048 137.469 205.868H134.234C127.944 205.647 121.688 204.838 115.547 203.454C102.982 200.529 90.8554 195.967 79.4777 189.885C70.2466 185.021 61.2993 179.637 52.6789 173.758C50.7957 172.454 48.6713 170.957 46.4501 169.267C27.9565 155.457 5.02059 132.618 0.626542 102.102C-0.717936 92.0217 0.107074 81.7709 3.04675 72.0359C5.98642 62.3009 10.9727 53.3065 17.6714 45.6554C30.9552 29.9748 48.1456 18.0816 67.5028 11.1793C84.2172 5.13107 101.715 1.52088 119.459 0.45984C150.459 -1.76131 210.382 4.75728 212.892 5.28843C214.091 5.40653 215.234 5.85186 216.196 6.57572C217.159 7.29958 217.903 8.2741 218.349 9.39273C218.797 10.4997 218.939 11.7067 218.761 12.8874C218.582 14.0681 218.09 15.1792 217.335 16.1044L187.397 52.2706C186.74 53.0723 185.905 53.7085 184.957 54.1278C184.009 54.5472 182.976 54.738 181.941 54.6849C147.513 53.0914 77.305 56.1334 58.2803 79.1658C56.2519 81.1457 54.7017 83.5621 53.7478 86.2313C52.794 88.9004 52.4615 91.752 52.7756 94.569C54.2242 104.564 64.1231 117.022 79.285 127.983L82.2787 130.059C91.317 136.37 100.899 141.865 110.912 146.476C132.061 156.133 146.982 155.506 159.198 145.076C167.016 137.94 174.25 130.189 180.83 121.899C183.052 119.243 185.659 116.201 188.17 113.256C206.374 92.203 224.095 69.7983 241.285 47.8766L243.458 45.076L250.121 36.5777C256.79 27.9047 265.708 21.2248 275.906 17.2633H276.196C290.554 12.3002 306.191 12.488 320.426 17.7945C324.984 19.2937 329.423 21.1337 333.705 23.2991C341.272 27.2239 348.636 31.5268 355.771 36.1914C363.76 41.4215 371.23 47.404 378.079 54.0571C379.083 45.9197 382.05 38.1481 386.723 31.4111C400.146 11.6139 421.151 1.90842 449.109 2.43956C458.858 2.76796 468.557 3.99642 478.08 6.10929C487.738 8.08901 496.719 10.5999 504.107 12.6279C509.515 14.1247 514.295 15.4285 518.593 16.3459C519.701 16.5981 520.727 17.1298 521.572 17.8905C522.417 18.6512 523.054 19.6154 523.421 20.6916C523.797 21.7602 523.893 22.9075 523.698 24.0235C523.504 25.1395 523.026 26.1869 522.311 27.0653L494.787 60.624C493.968 61.6131 492.881 62.3443 491.656 62.7298C490.431 63.1153 489.121 63.1386 487.883 62.7969C474.746 58.7206 461.186 56.1609 447.467 55.1677C435.927 55.0229 432.257 58.4994 430.905 60.286Z" fill="#040B37"/>
<path d="M156.06 100.559C156.088 106.889 153.711 112.993 149.409 117.636C145.106 122.28 139.201 125.115 132.887 125.569C126.573 126.023 120.322 124.062 115.4 120.082C110.478 116.102 107.251 110.401 106.374 104.132C106.219 102.947 106.139 101.753 106.132 100.559C106.123 94.1575 108.574 87.9977 112.977 83.3518C117.38 78.706 123.4 75.929 129.792 75.5947H131.096C137.717 75.5947 144.067 78.2248 148.748 82.9064C153.43 87.5881 156.06 93.9377 156.06 100.559Z" fill="#0A4FE8"/>
<path d="M55.5762 229.48C56.4253 227.986 57.6812 226.764 59.1976 225.955C60.6707 225.119 62.3322 224.67 64.0263 224.652C65.9874 224.621 67.9153 225.158 69.579 226.197C71.2239 227.203 72.4826 228.734 73.1524 230.542H69.2893C68.8215 229.58 68.0832 228.774 67.1647 228.225C66.1992 227.71 65.1205 227.444 64.0263 227.452C62.8111 227.431 61.6117 227.731 60.5495 228.321C59.5511 228.932 58.7343 229.799 58.1835 230.832C57.5851 232.013 57.2866 233.323 57.3144 234.647C57.2826 235.971 57.5813 237.282 58.1835 238.461C58.7064 239.514 59.5298 240.388 60.5495 240.972C61.5984 241.6 62.804 241.918 64.0263 241.89C65.1232 241.922 66.2082 241.655 67.1647 241.117C68.1116 240.603 68.8595 239.787 69.2893 238.799H73.1524C72.4826 240.608 71.2239 242.138 69.579 243.145C67.9153 244.184 65.9874 244.72 64.0263 244.69C62.3302 244.687 60.6648 244.238 59.1976 243.387C57.6794 242.559 56.4244 241.32 55.5762 239.813C54.6488 238.252 54.1801 236.462 54.224 234.647C54.1953 232.834 54.663 231.047 55.5762 229.48Z" fill="#040B37"/>
<path d="M88.7015 226.102C90.2127 226.873 91.47 228.063 92.3229 229.53C93.2227 231.135 93.6732 232.953 93.6267 234.793C93.6853 236.603 93.2334 238.394 92.3229 239.96C91.4805 241.423 90.2192 242.6 88.7015 243.34C86.9789 244.141 85.096 244.537 83.1968 244.499H76.8232V224.894H83.1968C85.0998 224.871 86.9829 225.284 88.7015 226.102ZM88.7015 240.008C89.3476 239.31 89.8435 238.488 90.1591 237.591C90.4747 236.694 90.6033 235.742 90.5364 234.793C90.5982 233.823 90.4681 232.85 90.1532 231.93C89.8384 231.011 89.3449 230.162 88.7015 229.433C88.0022 228.772 87.1731 228.264 86.2671 227.94C85.3611 227.615 84.3983 227.483 83.4384 227.55H80.2514V242.036H83.4384C84.3686 242.051 85.2919 241.879 86.1545 241.531C87.0171 241.183 87.801 240.665 88.4598 240.008H88.7015Z" fill="#040B37"/>
<path d="M99.4211 244.016C98.4273 243.606 97.5724 242.919 96.9585 242.036C96.3388 241.181 96.0168 240.146 96.0413 239.091H99.4695C99.5358 239.885 99.8974 240.626 100.483 241.167C100.825 241.465 101.224 241.692 101.656 241.833C102.087 241.974 102.542 242.026 102.994 241.988C103.914 242.061 104.828 241.785 105.554 241.215C105.854 240.959 106.096 240.64 106.263 240.282C106.429 239.924 106.517 239.534 106.519 239.139C106.542 238.538 106.334 237.951 105.94 237.497C105.524 237.084 105.033 236.756 104.491 236.531L101.932 235.759C100.864 235.493 99.8153 235.154 98.7934 234.745C97.9143 234.361 97.1697 233.725 96.6538 232.917C96.1378 232.108 95.8739 231.165 95.8963 230.206C95.874 229.143 96.1776 228.098 96.7657 227.212C97.3462 226.349 98.1695 225.677 99.1317 225.281C100.248 224.817 101.448 224.587 102.657 224.605C104.388 224.489 106.103 225.004 107.485 226.053C108.103 226.493 108.608 227.072 108.96 227.743C109.313 228.414 109.502 229.158 109.513 229.916H105.988C105.878 229.204 105.519 228.554 104.974 228.081C104.258 227.57 103.39 227.315 102.512 227.357C101.702 227.329 100.905 227.566 100.242 228.033C99.9525 228.283 99.7232 228.595 99.5726 228.946C99.422 229.298 99.3537 229.679 99.3728 230.061C99.3546 230.609 99.5443 231.144 99.9039 231.558C100.314 231.943 100.788 232.253 101.304 232.475C102.059 232.772 102.833 233.014 103.622 233.2C104.926 233.586 105.988 233.924 106.809 234.262C107.633 234.641 108.347 235.222 108.885 235.952C109.508 236.803 109.816 237.844 109.754 238.897C109.744 239.904 109.46 240.889 108.933 241.746C108.369 242.653 107.568 243.388 106.616 243.871C105.486 244.409 104.245 244.674 102.994 244.643C101.773 244.673 100.559 244.459 99.4211 244.016Z" fill="#040B37"/>
<path d="M123.225 244.016C122.232 243.606 121.377 242.919 120.763 242.036C120.143 241.181 119.821 240.146 119.845 239.091H123.274C123.34 239.885 123.702 240.626 124.288 241.167C124.63 241.465 125.028 241.692 125.459 241.833C125.891 241.974 126.346 242.026 126.799 241.988C127.716 242.043 128.624 241.769 129.358 241.215C129.658 240.959 129.9 240.64 130.066 240.282C130.233 239.924 130.321 239.534 130.323 239.139C130.346 238.538 130.139 237.951 129.744 237.497C129.329 237.084 128.836 236.756 128.295 236.531L126.074 235.759C125.022 235.494 123.989 235.155 122.984 234.745C122.105 234.361 121.36 233.725 120.844 232.917C120.328 232.108 120.064 231.165 120.087 230.206C120.064 229.143 120.367 228.098 120.956 227.212C121.536 226.349 122.36 225.677 123.322 225.281C124.438 224.817 125.638 224.587 126.847 224.605C128.578 224.489 130.293 225.004 131.676 226.053C132.272 226.513 132.762 227.096 133.113 227.762C133.463 228.429 133.664 229.164 133.703 229.916H130.13C130.094 229.558 129.986 229.21 129.812 228.894C129.637 228.579 129.401 228.302 129.116 228.081C128.406 227.591 127.564 227.329 126.702 227.329C125.839 227.329 124.997 227.591 124.288 228.081C123.998 228.331 123.769 228.643 123.619 228.995C123.468 229.346 123.399 229.727 123.418 230.109C123.4 230.657 123.59 231.192 123.95 231.606C124.349 232.004 124.826 232.316 125.35 232.524C126.104 232.82 126.878 233.063 127.667 233.248C128.971 233.634 130.034 233.972 130.854 234.31C131.678 234.689 132.393 235.27 132.931 236C133.554 236.851 133.861 237.893 133.8 238.946C133.789 239.952 133.506 240.937 132.979 241.795C132.415 242.701 131.613 243.436 130.661 243.919C129.531 244.457 128.291 244.722 127.04 244.692C125.735 244.739 124.435 244.509 123.225 244.016Z" fill="#040B37"/>
<path d="M142.492 229.434C144.184 228.57 146.148 228.41 147.957 228.989C149.766 229.568 151.274 230.839 152.149 232.524C152.802 233.81 153.133 235.235 153.115 236.677C153.127 238.134 152.797 239.573 152.149 240.878C151.543 242.053 150.624 243.039 149.493 243.727C148.372 244.403 147.085 244.754 145.775 244.741C144.692 244.751 143.62 244.52 142.637 244.065C141.762 243.616 140.989 242.991 140.367 242.23V251.887H137.181V228.951H140.367V231.269C140.943 230.519 141.666 229.895 142.492 229.434ZM149.059 233.876C148.661 233.14 148.057 232.536 147.321 232.138C146.231 231.568 144.964 231.435 143.779 231.767C142.595 232.099 141.581 232.871 140.947 233.925C140.502 234.791 140.27 235.751 140.27 236.725C140.27 237.699 140.502 238.659 140.947 239.526C141.341 240.29 141.943 240.926 142.685 241.361C143.392 241.762 144.19 241.978 145.003 241.988C145.823 241.981 146.625 241.747 147.321 241.312C148.073 240.891 148.679 240.251 149.059 239.477C149.504 238.611 149.736 237.651 149.736 236.677C149.736 235.703 149.504 234.743 149.059 233.876Z" fill="#040B37"/>
<path d="M155.818 232.525C156.426 231.362 157.345 230.393 158.474 229.724C159.578 229.049 160.849 228.698 162.144 228.71C163.265 228.681 164.377 228.93 165.379 229.435C166.231 229.855 166.974 230.466 167.552 231.221V228.952H170.787V244.5H167.552V242.182C166.958 242.953 166.199 243.58 165.331 244.017C164.324 244.51 163.216 244.758 162.095 244.741C160.802 244.749 159.532 244.398 158.425 243.727C157.31 243.037 156.407 242.051 155.818 240.878C155.149 239.581 154.816 238.137 154.852 236.677C154.81 235.233 155.143 233.802 155.818 232.525ZM166.875 233.925C166.478 233.176 165.875 232.556 165.137 232.139C164.458 231.712 163.67 231.494 162.868 231.511C162.05 231.487 161.244 231.706 160.55 232.139C159.814 232.536 159.21 233.141 158.812 233.877C158.367 234.743 158.135 235.703 158.135 236.677C158.135 237.651 158.367 238.611 158.812 239.478C159.192 240.252 159.798 240.892 160.55 241.313C161.246 241.748 162.048 241.982 162.868 241.989C163.697 241.984 164.509 241.751 165.216 241.317C165.922 240.883 166.496 240.264 166.875 239.526C167.32 238.66 167.553 237.7 167.553 236.726C167.553 235.752 167.32 234.792 166.875 233.925Z" fill="#040B37"/>
<path d="M174.65 232.523C175.247 231.337 176.19 230.361 177.354 229.722C178.54 229.032 179.893 228.681 181.265 228.708C182.981 228.598 184.684 229.075 186.094 230.06C187.367 230.984 188.259 232.34 188.604 233.875H185.128C184.877 233.151 184.404 232.526 183.776 232.088C182.921 231.538 181.899 231.309 180.891 231.442C179.883 231.574 178.955 232.06 178.271 232.812C177.517 233.977 177.115 235.335 177.115 236.723C177.115 238.111 177.517 239.47 178.271 240.635C178.651 241.094 179.132 241.46 179.676 241.703C180.221 241.946 180.814 242.059 181.41 242.035C182.209 242.101 183.008 241.9 183.681 241.463C184.354 241.026 184.863 240.378 185.128 239.621H188.604C188.172 241.116 187.276 242.434 186.045 243.387C184.641 244.383 182.934 244.861 181.217 244.739C179.852 244.757 178.505 244.425 177.305 243.773C176.151 243.101 175.213 242.112 174.602 240.924C173.969 239.614 173.64 238.178 173.64 236.723C173.64 235.269 173.969 233.833 174.602 232.523H174.65Z" fill="#040B37"/>
<path d="M205.504 237.933H193.674C193.733 239.075 194.236 240.149 195.075 240.926C195.902 241.683 196.996 242.083 198.117 242.037C198.876 242.088 199.634 241.908 200.289 241.52C200.944 241.132 201.466 240.555 201.786 239.864H205.263C204.795 241.275 203.9 242.507 202.704 243.389C201.363 244.329 199.752 244.804 198.117 244.741C196.722 244.753 195.345 244.421 194.108 243.775C192.95 243.092 191.999 242.107 191.356 240.926C190.691 239.626 190.344 238.186 190.344 236.725C190.344 235.265 190.691 233.825 191.356 232.525C191.954 231.339 192.896 230.363 194.06 229.724C195.297 229.029 196.698 228.679 198.117 228.71C199.481 228.698 200.826 229.03 202.027 229.676C203.164 230.307 204.101 231.243 204.732 232.38C205.616 234.088 205.904 236.042 205.552 237.933H205.504ZM202.269 235.325C202.281 234.787 202.175 234.253 201.958 233.761C201.742 233.269 201.419 232.83 201.014 232.476C200.138 231.774 199.046 231.398 197.923 231.414C196.871 231.38 195.848 231.762 195.075 232.476C194.276 233.224 193.778 234.237 193.674 235.325H202.269Z" fill="#040B37"/>
<path d="M219.605 247.684H216.417V221.899H219.605V247.684Z" fill="#040B37"/>
<path d="M244.616 236.097C245.346 236.979 245.74 238.091 245.726 239.236C245.743 240.194 245.474 241.135 244.953 241.94C244.381 242.761 243.597 243.411 242.684 243.823C241.619 244.288 240.466 244.519 239.304 244.499H231.433V224.895H238.918C240.096 224.866 241.267 225.096 242.346 225.571C243.228 225.967 243.981 226.603 244.519 227.406C245.039 228.157 245.309 229.052 245.291 229.965C245.313 230.976 244.99 231.964 244.374 232.766C243.74 233.54 242.904 234.124 241.96 234.456C243.018 234.655 243.964 235.24 244.616 236.097ZM234.668 233.152H238.628C239.509 233.206 240.38 232.95 241.09 232.428C241.402 232.183 241.648 231.866 241.808 231.504C241.968 231.142 242.037 230.746 242.008 230.351C242.033 229.957 241.963 229.563 241.803 229.201C241.643 228.84 241.399 228.522 241.09 228.275C240.38 227.753 239.509 227.496 238.628 227.551H234.668V233.152ZM241.574 241.119C241.882 240.84 242.124 240.496 242.283 240.112C242.441 239.728 242.512 239.313 242.491 238.898C242.521 238.47 242.449 238.041 242.282 237.647C242.114 237.252 241.855 236.903 241.525 236.629C240.792 236.029 239.864 235.72 238.918 235.759H234.668V241.892H239.014C239.93 241.931 240.832 241.658 241.574 241.119Z" fill="#040B37"/>
<path d="M254.034 229.385C254.877 228.925 255.825 228.692 256.786 228.709V232.041H256.014C254.958 231.967 253.917 232.315 253.117 233.006C252.393 233.959 252.049 235.146 252.15 236.338V244.498H248.963V228.95H252.15V231.22C252.613 230.459 253.261 229.827 254.034 229.385Z" fill="#040B37"/>
<path d="M259.392 232.524C260.003 231.365 260.92 230.396 262.044 229.724C263.168 229.051 264.456 228.7 265.766 228.709C266.872 228.687 267.965 228.935 268.953 229.434C269.804 229.854 270.548 230.466 271.126 231.22V228.951H274.361V244.499H270.932V242.181C270.339 242.952 269.58 243.579 268.711 244.016C267.707 244.515 266.597 244.763 265.476 244.74C264.197 244.754 262.94 244.403 261.855 243.726C260.724 243.039 259.805 242.053 259.199 240.877C258.529 239.58 258.197 238.136 258.233 236.677C258.249 235.215 258.649 233.783 259.392 232.524ZM270.45 233.924C270.05 233.193 269.468 232.577 268.76 232.138C268.06 231.717 267.257 231.5 266.442 231.51C265.62 231.527 264.817 231.753 264.107 232.167C263.397 232.581 262.805 233.169 262.386 233.876C261.941 234.743 261.709 235.703 261.709 236.677C261.709 237.651 261.941 238.611 262.386 239.477C262.766 240.251 263.372 240.891 264.124 241.312C264.819 241.747 265.621 241.981 266.442 241.988C267.255 241.977 268.052 241.761 268.76 241.36C269.474 240.907 270.057 240.275 270.45 239.525C270.894 238.659 271.126 237.699 271.126 236.725C271.126 235.751 270.894 234.791 270.45 233.924Z" fill="#040B37"/>
<path d="M289.473 229.481C290.448 229.965 291.231 230.765 291.695 231.75C292.288 232.845 292.571 234.08 292.515 235.323V244.498H289.329V235.758C289.414 234.605 289.05 233.463 288.314 232.571C287.942 232.199 287.497 231.909 287.006 231.718C286.516 231.527 285.991 231.439 285.466 231.461C284.939 231.436 284.414 231.522 283.923 231.714C283.432 231.905 282.988 232.197 282.617 232.571C282.235 233.004 281.944 233.509 281.761 234.056C281.579 234.604 281.508 235.183 281.554 235.758V244.449H278.319V228.95H281.554V230.929C282.095 230.29 282.771 229.779 283.534 229.433C284.36 229.086 285.246 228.905 286.142 228.901C287.283 228.815 288.428 229.014 289.473 229.481Z" fill="#040B37"/>
<path d="M296.235 232.522C296.858 231.371 297.774 230.405 298.891 229.722C300.027 229.039 301.331 228.687 302.657 228.708C303.69 228.724 304.71 228.954 305.65 229.384C306.551 229.77 307.346 230.366 307.969 231.122V223.638H311.252V244.497H307.969V242.179C307.405 242.959 306.659 243.589 305.795 244.014C304.808 244.513 303.714 244.761 302.609 244.739C301.299 244.753 300.012 244.401 298.891 243.725C297.772 243.022 296.857 242.04 296.235 240.876C295.587 239.571 295.257 238.132 295.269 236.675C295.251 235.233 295.582 233.808 296.235 232.522ZM307.341 233.923C306.706 232.869 305.693 232.097 304.508 231.765C303.323 231.433 302.057 231.566 300.967 232.136C300.23 232.534 299.626 233.138 299.228 233.874C298.784 234.741 298.552 235.701 298.552 236.675C298.552 237.649 298.784 238.609 299.228 239.475C299.608 240.249 300.215 240.889 300.967 241.31C301.662 241.745 302.464 241.979 303.284 241.986C304.097 241.976 304.895 241.76 305.603 241.359C306.344 240.924 306.947 240.288 307.341 239.524C307.754 238.648 307.968 237.692 307.968 236.723C307.968 235.755 307.754 234.798 307.341 233.923Z" fill="#040B37"/>
<path d="M315.355 226.101C314.989 225.707 314.785 225.19 314.785 224.652C314.785 224.114 314.989 223.597 315.355 223.204C315.54 223.005 315.765 222.846 316.014 222.738C316.263 222.629 316.532 222.573 316.804 222.573C317.076 222.573 317.345 222.629 317.594 222.738C317.843 222.846 318.068 223.005 318.253 223.204C318.63 223.591 318.842 224.111 318.842 224.652C318.842 225.193 318.63 225.713 318.253 226.101C318.068 226.3 317.843 226.458 317.594 226.567C317.345 226.675 317.076 226.731 316.804 226.731C316.532 226.731 316.263 226.675 316.014 226.567C315.765 226.458 315.54 226.3 315.355 226.101ZM318.397 228.756V244.304H315.162V228.95L318.397 228.756Z" fill="#040B37"/>
<path d="M333.705 229.481C334.683 229.977 335.478 230.772 335.974 231.75C336.543 232.853 336.826 234.082 336.795 235.323V244.498H333.608V235.758C333.654 235.183 333.584 234.604 333.401 234.056C333.219 233.509 332.928 233.004 332.546 232.571C332.175 232.197 331.73 231.905 331.239 231.714C330.748 231.522 330.223 231.436 329.697 231.461C329.172 231.445 328.649 231.535 328.159 231.726C327.67 231.917 327.224 232.204 326.848 232.571C326.099 233.458 325.719 234.599 325.786 235.758V244.449H322.599V228.95H325.786V230.929C326.345 230.289 327.037 229.778 327.814 229.433C328.64 229.086 329.525 228.905 330.421 228.901C331.547 228.815 332.676 229.015 333.705 229.481Z" fill="#040B37"/>
<path d="M349.831 229.433C350.683 229.854 351.427 230.465 352.004 231.22V228.95H355.239V244.74C355.261 246.078 354.964 247.403 354.37 248.603C353.759 249.697 352.857 250.599 351.763 251.21C350.498 251.874 349.086 252.206 347.658 252.176C345.804 252.256 343.973 251.731 342.444 250.679C341.769 250.232 341.203 249.64 340.785 248.947C340.367 248.254 340.109 247.476 340.029 246.671H343.216C343.498 247.498 344.062 248.199 344.81 248.651C345.672 249.155 346.659 249.407 347.658 249.375C348.233 249.404 348.807 249.317 349.346 249.118C349.886 248.918 350.38 248.612 350.797 248.216C351.643 247.262 352.077 246.013 352.004 244.74V242.181C351.423 242.963 350.66 243.592 349.783 244.015C348.811 244.51 347.734 244.759 346.645 244.74C345.335 244.754 344.047 244.402 342.926 243.726C341.796 243.038 340.877 242.053 340.27 240.877C339.601 239.58 339.269 238.135 339.305 236.676C339.262 235.232 339.595 233.801 340.27 232.523C340.881 231.364 341.799 230.396 342.923 229.723C344.047 229.05 345.335 228.699 346.645 228.709C347.749 228.692 348.842 228.94 349.831 229.433ZM351.328 233.924C350.931 233.174 350.328 232.555 349.59 232.137C348.911 231.711 348.122 231.493 347.32 231.509C346.502 231.486 345.696 231.704 345.002 232.137C344.266 232.535 343.662 233.139 343.264 233.875C342.819 234.742 342.587 235.702 342.587 236.676C342.587 237.65 342.819 238.61 343.264 239.477C343.644 240.25 344.25 240.89 345.002 241.311C345.698 241.746 346.5 241.98 347.32 241.987C348.149 241.982 348.962 241.75 349.668 241.316C350.375 240.882 350.949 240.262 351.328 239.525C351.773 238.658 352.005 237.698 352.005 236.724C352.005 235.75 351.773 234.79 351.328 233.924Z" fill="#040B37"/>
<path d="M378.08 240.588H369.871L368.471 244.595H365.091L372.14 224.991H375.859L382.86 244.595H379.48L378.08 240.588ZM377.162 237.98L373.975 228.854L370.789 237.98H377.162Z" fill="#040B37"/>
<path d="M395.075 229.434C395.935 229.842 396.682 230.455 397.248 231.22V228.951H400.531V244.74C400.537 246.083 400.223 247.407 399.614 248.603C399.031 249.717 398.121 250.627 397.007 251.211C395.757 251.868 394.362 252.2 392.951 252.176C391.081 252.257 389.235 251.732 387.688 250.679C387.02 250.23 386.461 249.637 386.051 248.943C385.642 248.25 385.392 247.474 385.321 246.672H388.508C388.771 247.495 389.319 248.197 390.054 248.651C390.936 249.151 391.937 249.401 392.951 249.376C394.108 249.413 395.234 248.997 396.089 248.217C396.918 247.255 397.334 246.006 397.248 244.74V242.181C396.674 242.951 395.93 243.579 395.075 244.016C393.989 244.538 392.791 244.785 391.587 244.735C390.383 244.684 389.209 244.338 388.17 243.726C387.052 243.024 386.137 242.042 385.515 240.877C384.867 239.572 384.536 238.133 384.549 236.677C384.531 235.235 384.862 233.81 385.515 232.524C386.138 231.373 387.054 230.407 388.17 229.723C389.292 229.047 390.579 228.696 391.889 228.709C392.994 228.687 394.088 228.935 395.075 229.434ZM396.621 233.924C395.986 232.871 394.972 232.099 393.788 231.767C392.603 231.435 391.337 231.568 390.246 232.138C389.51 232.536 388.906 233.14 388.508 233.876C388.063 234.743 387.832 235.703 387.832 236.677C387.832 237.651 388.063 238.611 388.508 239.477C388.888 240.251 389.494 240.891 390.246 241.312C390.942 241.747 391.744 241.981 392.564 241.988C393.377 241.977 394.175 241.761 394.882 241.36C395.624 240.926 396.227 240.289 396.621 239.525C397.034 238.65 397.248 237.693 397.248 236.725C397.248 235.757 397.034 234.8 396.621 233.924Z" fill="#040B37"/>
<path d="M418.592 237.933H406.714C406.773 239.075 407.276 240.149 408.114 240.926C408.942 241.683 410.035 242.083 411.156 242.037C411.916 242.088 412.673 241.908 413.328 241.52C413.984 241.132 414.506 240.555 414.826 239.864H418.303C417.834 241.275 416.94 242.507 415.743 243.389C414.337 244.381 412.632 244.859 410.915 244.741C409.52 244.753 408.144 244.421 406.907 243.775C405.749 243.092 404.797 242.107 404.154 240.926C403.458 239.638 403.109 238.19 403.141 236.725C403.117 235.267 403.448 233.826 404.106 232.525C404.738 231.348 405.693 230.376 406.859 229.724C408.096 229.029 409.496 228.679 410.915 228.71C412.279 228.698 413.624 229.03 414.826 229.676C415.96 230.294 416.884 231.235 417.482 232.38C418.157 233.588 418.491 234.956 418.448 236.339C418.547 236.864 418.595 237.398 418.592 237.933ZM415.357 235.325C415.36 234.789 415.249 234.258 415.033 233.767C414.817 233.276 414.5 232.836 414.102 232.476C413.226 231.774 412.134 231.398 411.011 231.414C409.959 231.38 408.936 231.762 408.163 232.476C407.365 233.224 406.866 234.237 406.762 235.325H415.357Z" fill="#040B37"/>
<path d="M432.692 229.482C433.67 229.979 434.464 230.774 434.961 231.752C435.554 232.846 435.838 234.082 435.782 235.325V244.499H432.595V235.76C432.68 234.606 432.317 233.465 431.581 232.573C431.208 232.201 430.763 231.911 430.272 231.72C429.782 231.528 429.258 231.441 428.732 231.462C428.199 231.44 427.667 231.527 427.169 231.718C426.67 231.909 426.216 232.2 425.835 232.573C425.099 233.465 424.736 234.606 424.821 235.76V244.451H421.585V228.951H424.821V230.931C425.352 230.281 426.031 229.768 426.801 229.434C427.626 229.087 428.512 228.907 429.408 228.903C430.534 228.813 431.664 229.012 432.692 229.482Z" fill="#040B37"/>
<path d="M439.499 232.523C440.111 231.348 441.05 230.375 442.203 229.722C443.407 229.033 444.775 228.682 446.163 228.708C447.88 228.586 449.587 229.064 450.991 230.06C452.264 230.984 453.157 232.34 453.502 233.875H450.025C449.775 233.151 449.302 232.526 448.674 232.088C447.989 231.63 447.179 231.394 446.355 231.412C445.76 231.387 445.166 231.501 444.622 231.744C444.077 231.987 443.597 232.353 443.217 232.812C442.432 233.966 442.012 235.329 442.012 236.724C442.012 238.119 442.432 239.481 443.217 240.635C443.589 241.103 444.068 241.476 444.615 241.719C445.161 241.963 445.758 242.071 446.355 242.035C447.148 242.099 447.94 241.896 448.605 241.458C449.27 241.021 449.77 240.374 450.025 239.621H453.502C453.089 241.125 452.189 242.449 450.943 243.387C449.54 244.387 447.832 244.865 446.114 244.739C444.734 244.757 443.371 244.425 442.154 243.773C441.011 243.087 440.077 242.102 439.451 240.924C438.818 239.614 438.489 238.178 438.489 236.724C438.489 235.269 438.818 233.833 439.451 232.523H439.499Z" fill="#040B37"/>
<path d="M470.21 228.95L460.553 251.789H457.221L460.36 244.257L454.42 228.95H457.994L462.339 240.829L466.878 228.95H470.21Z" fill="#040B37"/>
<path d="M536.748 75.209C533.125 75.2186 529.58 74.1522 526.563 72.145C523.546 70.1378 521.193 67.2802 519.802 63.9343C518.41 60.5883 518.044 56.9048 518.749 53.3503C519.453 49.7959 521.197 46.5307 523.76 43.9685C526.322 41.4062 529.587 39.6623 533.142 38.9577C536.696 38.2531 540.379 38.6196 543.725 40.0107C547.071 41.4018 549.929 43.7548 551.936 46.7717C553.943 49.7886 555.01 53.3334 555 56.957C554.987 61.7938 553.06 66.4289 549.64 69.849C546.22 73.2692 541.585 75.1963 536.748 75.209ZM536.748 40.2018C533.434 40.2018 530.195 41.1845 527.439 43.0255C524.684 44.8666 522.536 47.4834 521.268 50.545C520 53.6067 519.668 56.9756 520.315 60.2258C520.961 63.4759 522.557 66.4614 524.9 68.8047C527.243 71.1479 530.229 72.7437 533.479 73.3902C536.729 74.0367 540.098 73.7049 543.16 72.4367C546.222 71.1686 548.838 69.021 550.679 66.2656C552.521 63.5103 553.503 60.2708 553.503 56.957C553.503 52.5132 551.738 48.2515 548.596 45.1093C545.454 41.967 541.192 40.2018 536.748 40.2018Z" fill="#040B37"/>
<path d="M527.573 53.1417H523.564V51.0654H534.043V53.1417H530.035V64.9235H527.573V53.1417Z" fill="#040B37"/>
<path d="M536.167 51.0654H538.92L541.382 57.8255L542.251 60.5777C542.541 59.6603 542.831 58.6946 543.12 57.8255L545.535 51.0654H548.335V64.9235H546.162V58.598C546.162 57.2943 546.163 55.4594 546.452 54.1557L545.293 57.3909L543.024 63.6197H541.576L539.306 57.3909L538.195 54.1557C538.195 55.4594 538.485 57.2943 538.485 58.598V64.9235H536.312L536.167 51.0654Z" fill="#040B37"/>
</svg>
