<svg width="49" height="49" viewBox="0 0 49 49" fill="none" xmlns="http://www.w3.org/2000/svg">
<circle cx="24.3336" cy="24.6515" r="24.1304" fill="#3CD856"/>
<path fill-rule="evenodd" clip-rule="evenodd" d="M29.9153 16.5259L25.9339 17.0946C25.3257 17.1815 24.8287 17.4715 24.4739 17.8721L15.1844 27.1617C14.242 28.104 14.242 29.6318 15.1844 30.5742L18.5969 33.9868C19.5393 34.9292 21.0671 34.9291 22.0095 33.9868L31.299 24.6973C31.6997 24.3424 31.9896 23.8454 32.0765 23.2372L32.6453 19.2559C32.8728 17.6634 31.5077 16.2983 29.9153 16.5259ZM27.1283 22.0428C27.5995 22.514 28.3634 22.514 28.8346 22.0428C29.3058 21.5717 29.3057 20.8077 28.8346 20.3366C28.3634 19.8654 27.5995 19.8654 27.1283 20.3366C26.6571 20.8077 26.6572 21.5717 27.1283 22.0428Z" fill="white"/>
</svg>
