<svg width="49" height="49" viewBox="0 0 49 49" fill="none" xmlns="http://www.w3.org/2000/svg">
<circle cx="24.4815" cy="24.6515" r="24.1304" fill="#4B75FF"/>
<path d="M22.0681 25.8577C26.7325 25.8577 30.5144 28.5592 30.5144 31.8909C30.5142 33.2233 29.4338 34.3038 28.1013 34.304H16.0359C14.7033 34.304 13.623 33.2234 13.6228 31.8909C13.6228 28.5592 17.4039 25.8578 22.0681 25.8577ZM22.0681 14.9993C24.7335 14.9993 26.8943 17.1601 26.8943 19.8254C26.8942 22.4908 24.7335 24.6516 22.0681 24.6516C19.4029 24.6514 17.242 22.4907 17.2419 19.8254C17.2419 17.1602 19.4029 14.9995 22.0681 14.9993ZM31.7205 17.4124C32.3867 17.4124 32.9273 17.9523 32.9275 18.6184V19.8254H34.1335C34.7998 19.8254 35.3404 20.3653 35.3406 21.0315C35.3406 21.6978 34.7999 22.2385 34.1335 22.2385H32.9275V23.4446C32.9275 24.1109 32.3868 24.6516 31.7205 24.6516C31.0543 24.6514 30.5144 24.1108 30.5144 23.4446V22.2385H29.3074C28.6412 22.2383 28.1013 21.6977 28.1013 21.0315C28.1015 20.3655 28.6413 19.8256 29.3074 19.8254H30.5144V18.6184C30.5146 17.9524 31.0544 17.4125 31.7205 17.4124Z" fill="white"/>
</svg>
