<svg width="147" height="59" viewBox="0 0 147 59" fill="none" xmlns="http://www.w3.org/2000/svg">
<g clip-path="url(#clip0_958_76998)">
<path d="M54.7847 40.1349C52.4134 46.3012 47.9642 51.4464 42.2047 54.6828C36.4453 57.9192 29.7368 59.0438 23.2367 57.8626C16.7367 56.6813 10.8527 53.2684 6.60015 48.2126C2.34758 43.1567 -0.00690291 36.7751 -0.0571289 30.1688C-0.0533877 26.7211 0.587754 23.3039 1.83397 20.0893C2.36686 18.7821 2.99907 17.5177 3.72507 16.3071C6.10163 12.1188 9.5053 8.60439 13.6155 6.09512L14.561 5.54674C14.7507 5.48629 14.9482 5.45439 15.1473 5.45215C15.7157 5.45714 16.2593 5.68651 16.6595 6.09027C17.0598 6.49403 17.2842 7.03952 17.2842 7.60803C17.2873 8.08796 17.1273 8.55467 16.8304 8.93176L15.9794 9.59366L14.7502 10.5581C9.74939 14.4678 6.42297 20.1334 5.44592 26.4056C4.59128 30.8173 4.98856 35.3802 6.59277 39.5779C8.19697 43.7755 10.9442 47.4404 14.5233 50.1578C17.8941 52.9264 22.032 54.5961 26.3804 54.9422C29.9838 55.3752 33.6383 54.8995 37.0108 53.5584C40.3833 52.2174 43.3665 50.0536 45.6886 47.2644C48.3825 44.2172 50.0498 40.3998 50.4542 36.3527C50.959 32.9788 50.5418 29.5311 49.2467 26.375C47.9516 23.2189 45.827 20.472 43.0978 18.4251C40.6449 16.368 37.6617 15.0443 34.4905 14.6061C31.3194 14.1679 28.089 14.6329 25.1702 15.9478C22.5573 16.9334 20.2591 18.6064 18.5182 20.7899C16.7774 22.9735 15.6584 25.5866 15.2797 28.3534C14.7293 31.4196 15.1942 34.5816 16.6037 37.3597C18.0132 40.1378 20.2905 42.3803 23.0899 43.7469C25.4363 44.9164 28.0902 45.321 30.6784 44.9037C33.2667 44.4865 35.659 43.2685 37.519 41.4209C39.1053 39.8305 40.1438 37.7761 40.4839 35.5556C40.8239 33.3352 40.4478 31.0643 39.4101 29.072C38.5665 27.457 37.2225 26.1585 35.5794 25.3711C33.9363 24.5836 32.0823 24.3494 30.295 24.7036C29.0508 24.9161 27.8977 25.4932 26.982 26.3618C26.0662 27.2304 25.4291 28.3514 25.1512 29.5826C24.8753 30.5903 24.9451 31.6615 25.3497 32.6248C25.7542 33.5881 26.47 34.388 27.3827 34.8966C27.8043 35.1446 28.2813 35.2832 28.7701 35.2997C29.259 35.3162 29.7442 35.2101 30.1815 34.9911C30.5245 34.8612 30.8184 34.6272 31.0218 34.3221C31.2253 34.0169 31.3282 33.6557 31.3162 33.2891C31.3294 33.1663 31.3167 33.0421 31.2792 32.9244C31.2417 32.8067 31.18 32.6981 31.0981 32.6056C31.0162 32.5131 30.916 32.4386 30.8038 32.387C30.6915 32.3354 30.5698 32.3077 30.4463 32.3058C30.256 32.2819 30.0747 32.2102 29.9196 32.0973C29.7645 31.9844 29.6406 31.8341 29.5594 31.6603C29.4782 31.4865 29.4424 31.295 29.4553 31.1036C29.4682 30.9123 29.5294 30.7273 29.6331 30.5659C29.8804 30.1432 30.2483 29.8039 30.6897 29.5917C31.1311 29.3794 31.6258 29.3038 32.1105 29.3745C32.9107 29.4922 33.6572 29.847 34.2538 30.3931C34.8504 30.9392 35.2697 31.6515 35.4576 32.4382C35.7417 33.5172 35.7013 34.6561 35.3414 35.7123C34.9815 36.7685 34.3181 37.6951 33.4343 38.3762C32.2105 39.3562 30.7123 39.9318 29.1471 40.0233C27.5819 40.1148 26.027 39.7177 24.6974 38.8868C23.3601 38.1177 22.2423 37.0184 21.451 35.694C20.6597 34.3697 20.2213 32.8645 20.1777 31.3224C20.0756 28.7912 20.8438 26.3014 22.3544 24.2677C23.865 22.2341 26.0268 20.7794 28.4796 20.146C30.7127 19.4799 33.0863 19.4435 35.3388 20.0408C37.5912 20.6381 39.6349 21.8459 41.2445 23.531C42.5735 24.795 43.6388 26.3099 44.3788 27.988C45.1189 29.6662 45.519 31.4743 45.5562 33.3081C45.6649 36.8052 44.6283 40.2422 42.604 43.096C40.5797 45.9499 37.6785 48.0643 34.342 49.1176C31.3609 50.1591 28.1526 50.3697 25.061 49.7267C21.9694 49.0837 19.1111 47.6115 16.7925 45.4678C14.4967 43.5337 12.7003 41.0755 11.5548 38.3007C10.4094 35.5259 9.94858 32.5162 10.2115 29.5259C10.4745 24.1828 12.8484 19.1628 16.8114 15.5695C20.3607 12.1695 24.9786 10.1045 29.879 9.72605C32.9832 9.41399 36.1184 9.74859 39.0868 10.7088C42.0552 11.6689 44.7924 13.2339 47.1258 15.3048C51.5631 19.0289 54.4662 24.2626 55.2764 29.9986C55.8269 33.4085 55.6854 36.8943 54.8603 40.2484" fill="#1872E2"/>
<path d="M23.1831 6.41595L20.8381 5.79188L19.0037 7.3615L18.8714 4.9598L16.8101 3.69276L19.0605 2.82286L19.6278 0.458984L21.1596 2.33117L23.5613 2.14206L22.2564 4.18445L23.1831 6.41595Z" fill="#FCA021"/>
<path d="M63.2197 15.4746H66.4345V26.7266H73.3938V29.3553H63.2197V15.4746Z" fill="#04042B"/>
<path d="M74.605 15.4747C74.6094 15.2354 74.6628 14.9994 74.7616 14.7814C74.8604 14.5634 75.0027 14.3678 75.1798 14.2067C75.3568 14.0456 75.5648 13.9223 75.7912 13.8444C76.0175 13.7666 76.2574 13.7357 76.4961 13.7538C76.7307 13.7331 76.9671 13.7603 77.1909 13.8337C77.4147 13.9071 77.6214 14.0252 77.7982 14.1808C77.975 14.3364 78.1183 14.5263 78.2196 14.7389C78.3208 14.9516 78.3778 15.1826 78.3872 15.418C78.3877 15.6613 78.3382 15.9021 78.2419 16.1255C78.1455 16.3489 78.0044 16.5502 77.8271 16.7168C77.6499 16.8835 77.4402 17.0119 77.2112 17.0943C76.9823 17.1766 76.7389 17.2111 76.4961 17.1956C76.2574 17.2137 76.0175 17.1828 75.7912 17.1049C75.5648 17.027 75.3568 16.9037 75.1798 16.7426C75.0027 16.5815 74.8604 16.3859 74.7616 16.1679C74.6628 15.9499 74.6094 15.714 74.605 15.4747ZM74.9643 18.6895H78.0657V29.3553H74.9643V18.6895Z" fill="#04042B"/>
<path d="M84.3235 18.9169H87.0656V21.2997H84.3991V29.3558H81.3166V21.2997H79.6714V18.9169H81.3166V18.4442C81.2872 17.9018 81.375 17.3595 81.5739 16.8541C81.7728 16.3487 82.0782 15.8921 82.4694 15.5153C82.8605 15.1385 83.3282 14.8503 83.8407 14.6704C84.3532 14.4906 84.8985 14.4232 85.4393 14.4729C86.2666 14.4434 87.0856 14.6465 87.8032 15.0591L86.9899 17.2906C86.6199 17.0451 86.1859 16.9136 85.7419 16.9124C84.8152 16.9124 84.3235 17.423 84.3235 18.4631V18.9169Z" fill="#04042B"/>
<path d="M98.8865 24.8921H90.8115C90.9765 25.5553 91.3753 26.1367 91.9347 26.5293C92.4941 26.922 93.1764 27.0994 93.8562 27.0291C94.8507 27.0551 95.8156 26.6882 96.5416 26.0079L98.1868 27.7855C97.3478 28.583 96.3034 29.1313 95.1706 29.3693C94.0377 29.6073 92.861 29.5255 91.7719 29.133C90.6829 28.7406 89.7245 28.053 89.0039 27.1471C88.2832 26.2412 87.8288 25.1527 87.6913 24.0033C87.6829 23.2638 87.8252 22.5304 88.1096 21.8477C88.3939 21.165 88.8143 20.5474 89.3452 20.0325C89.876 19.5176 90.5061 19.1162 91.1971 18.8528C91.8882 18.5893 92.6257 18.4693 93.3646 18.5002C94.1038 18.4594 94.8432 18.5747 95.535 18.8385C96.2267 19.1022 96.8553 19.5086 97.3797 20.0312C97.9041 20.5538 98.3126 21.1809 98.5787 21.8718C98.8448 22.5626 98.9627 23.3018 98.9244 24.0412C98.9433 24.287 98.9054 24.6274 98.8865 24.8921ZM90.7737 23.001H96.031C95.9508 22.3695 95.636 21.7912 95.1489 21.3812C94.6618 20.9713 94.0383 20.7597 93.4023 20.7885C92.7535 20.7566 92.1174 20.977 91.6274 21.4035C91.1374 21.83 90.8315 22.4296 90.7737 23.0767V23.001Z" fill="#04042B"/>
<path d="M118.858 20.505C118.858 23.6064 116.531 25.5164 112.825 25.5164H110.045V29.2986H106.906V15.418H112.901C116.531 15.4747 118.858 17.4036 118.858 20.505ZM115.605 20.505C115.605 18.9732 114.621 18.0844 112.655 18.0844H110.045V22.9067H112.579C114.621 22.9067 115.605 22.0179 115.605 20.505Z" fill="#04042B"/>
<path d="M120.558 15.4745C120.565 15.236 120.62 15.0014 120.72 14.7846C120.82 14.5679 120.962 14.3734 121.139 14.2128C121.315 14.0522 121.522 13.9288 121.747 13.8499C121.972 13.771 122.211 13.7383 122.449 13.7536C122.684 13.7302 122.922 13.7554 123.147 13.8277C123.372 13.9001 123.58 14.018 123.757 14.1741C123.934 14.3302 124.078 14.5212 124.178 14.7352C124.278 14.9492 124.334 15.1816 124.34 15.4178C124.34 15.9193 124.141 16.4003 123.787 16.755C123.432 17.1096 122.951 17.3089 122.449 17.3089C121.948 17.3089 121.467 17.1096 121.112 16.755C120.757 16.4003 120.558 15.9193 120.558 15.4178V15.4745ZM120.936 18.6894H124.019V29.3552H120.936V18.6894Z" fill="#04042B"/>
<path d="M133.775 28.8256C133.028 29.3088 132.149 29.5468 131.26 29.5064C130.737 29.5793 130.204 29.5335 129.701 29.3723C129.198 29.2112 128.738 28.9388 128.355 28.5755C127.971 28.2122 127.675 27.7672 127.487 27.2736C127.299 26.78 127.225 26.2504 127.27 25.7242V21.3368H125.625V18.9541H127.27V16.3633H130.371V18.9541H133.019V21.3368H130.371V25.6864C130.345 25.8697 130.36 26.0567 130.416 26.2333C130.472 26.4098 130.568 26.5714 130.695 26.706C130.822 26.8406 130.978 26.9446 131.151 27.0104C131.325 27.0761 131.51 27.1019 131.695 27.0858C132.143 27.094 132.582 26.9545 132.943 26.6887L133.775 28.8256Z" fill="#04042B"/>
<path d="M146.427 23.2468V29.3551H143.325V23.6818C143.325 21.9609 142.531 21.1666 141.17 21.1666C139.808 21.1666 138.617 22.0744 138.617 24.0411V29.3172H135.515V14.6045H138.617V19.7105C139.069 19.2859 139.601 18.9552 140.182 18.7378C140.763 18.5203 141.382 18.4202 142.002 18.4434C142.626 18.4028 143.252 18.5026 143.834 18.7353C144.415 18.968 144.937 19.3278 145.361 19.7883C145.786 20.2489 146.102 20.7985 146.286 21.3969C146.47 21.9953 146.518 22.6274 146.427 23.2468Z" fill="#04042B"/>
<path d="M75.9468 36.0312V49.9686H73.3181L66.3968 41.5532V49.9686H63.2197V36.088H65.8672L72.7698 44.5223V36.088L75.9468 36.0312Z" fill="#04042B"/>
<path d="M78.6323 36.0313C78.6394 35.7928 78.6945 35.5582 78.7943 35.3414C78.894 35.1247 79.0363 34.9302 79.2128 34.7696C79.3893 34.609 79.5962 34.4856 79.8214 34.4067C80.0466 34.3278 80.2853 34.2951 80.5234 34.3104C80.7581 34.2898 80.9945 34.317 81.2183 34.3904C81.4421 34.4637 81.6487 34.5818 81.8255 34.7374C82.0023 34.893 82.1457 35.0829 82.2469 35.2956C82.3482 35.5082 82.4052 35.7392 82.4145 35.9746C82.4145 36.4761 82.2153 36.9571 81.8606 37.3118C81.506 37.6664 81.025 37.8657 80.5234 37.8657C80.0219 37.8657 79.5409 37.6664 79.1862 37.3118C78.8316 36.9571 78.6323 36.4761 78.6323 35.9746V36.0313ZM79.0106 39.2462H82.112V49.9687H79.0106V39.2462Z" fill="#04042B"/>
<path d="M95.9745 39.2447V48.0762C95.9745 52.0475 93.8376 53.8629 89.9987 53.8629C88.1399 53.9428 86.3043 53.4259 84.7603 52.3879L85.9895 50.1753C87.088 50.9736 88.4139 51.3979 89.7717 51.3856C91.9654 51.3856 92.9109 50.4022 92.9109 48.4733V48.0762C92.4754 48.5224 91.9503 48.8712 91.37 49.0994C90.7897 49.3276 90.1676 49.43 89.5448 49.4C88.8418 49.4426 88.1375 49.3408 87.4753 49.1011C86.813 48.8614 86.2069 48.4887 85.6941 48.006C85.1812 47.5233 84.7725 46.9408 84.4932 46.2943C84.2139 45.6478 84.0698 44.951 84.0698 44.2467C84.0698 43.5424 84.2139 42.8455 84.4932 42.199C84.7725 41.5525 85.1812 40.97 85.6941 40.4873C86.2069 40.0046 86.813 39.6319 87.4753 39.3922C88.1375 39.1525 88.8418 39.0508 89.5448 39.0934C90.2101 39.0555 90.8751 39.1743 91.486 39.4404C92.097 39.7065 92.6368 40.1123 93.0622 40.6252V39.2447H95.9745ZM92.9298 44.294C92.9678 43.7293 92.835 43.1664 92.5485 42.6784C92.262 42.1904 91.8351 41.7999 91.3236 41.5578C90.8121 41.3158 90.2396 41.2335 89.6806 41.3214C89.1215 41.4094 88.602 41.6636 88.1895 42.051C87.777 42.4384 87.4907 42.941 87.3679 43.4934C87.2451 44.0458 87.2915 44.6224 87.501 45.1481C87.7105 45.6738 88.0734 46.1242 88.5425 46.4407C89.0116 46.7572 89.5652 46.9251 90.1311 46.9226C90.4916 46.9517 90.8542 46.905 91.1956 46.7855C91.537 46.666 91.8495 46.4763 92.1131 46.2287C92.3768 45.9811 92.5857 45.681 92.7264 45.3478C92.867 45.0146 92.9363 44.6556 92.9298 44.294Z" fill="#04042B"/>
<path d="M109.248 45.4493H101.23C101.394 46.114 101.792 46.6974 102.351 47.0932C102.91 47.4889 103.593 47.6706 104.274 47.6052C104.769 47.6253 105.263 47.5433 105.725 47.3644C106.187 47.1854 106.607 46.9134 106.96 46.5651L108.605 48.3428C107.769 49.1473 106.724 49.7019 105.589 49.944C104.454 50.186 103.274 50.1058 102.182 49.7124C101.09 49.3189 100.13 48.6279 99.4105 47.7176C98.6908 46.8072 98.2401 45.7137 98.1092 44.5606C98.1008 43.8219 98.2432 43.0892 98.5278 42.4075C98.8123 41.7258 99.2331 41.1094 99.7642 40.5959C100.295 40.0825 100.926 39.6829 101.617 39.4216C102.308 39.1603 103.045 39.0428 103.783 39.0763C104.52 39.0358 105.258 39.1505 105.948 39.4132C106.639 39.6758 107.266 40.0805 107.79 40.601C108.314 41.1215 108.723 41.7463 108.991 42.4349C109.258 43.1235 109.378 43.8605 109.342 44.5984C109.305 44.8631 109.267 45.2035 109.248 45.4493ZM101.135 43.6528H106.392C106.312 43.0212 105.997 42.443 105.51 42.033C105.023 41.623 104.4 41.4114 103.764 41.4402C103.143 41.431 102.54 41.652 102.072 42.0605C101.604 42.469 101.304 43.0362 101.23 43.6528H101.135Z" fill="#04042B"/>
<path d="M117.986 39.0942V41.9498H117.286C116.892 41.9114 116.495 41.9629 116.124 42.1005C115.753 42.2382 115.419 42.4584 115.145 42.7444C114.872 43.0304 114.667 43.3747 114.547 43.7514C114.426 44.1281 114.393 44.5273 114.449 44.9188V49.968H111.367V39.3022H114.317V40.7205C114.75 40.1711 115.31 39.7358 115.949 39.4523C116.589 39.1689 117.288 39.0459 117.986 39.0942Z" fill="#04042B"/>
<path d="M119.46 36.0304C119.468 35.7919 119.523 35.5572 119.622 35.3405C119.722 35.1237 119.864 34.9292 120.041 34.7687C120.217 34.6081 120.424 34.4847 120.649 34.4058C120.875 34.3269 121.113 34.2941 121.352 34.3094C121.586 34.2888 121.822 34.316 122.046 34.3894C122.27 34.4628 122.477 34.5809 122.654 34.7365C122.83 34.8921 122.974 35.0819 123.075 35.2946C123.176 35.5072 123.233 35.7383 123.243 35.9736C123.243 36.4752 123.043 36.9562 122.689 37.3108C122.334 37.6655 121.853 37.8647 121.352 37.8647C120.85 37.8647 120.369 37.6655 120.014 37.3108C119.66 36.9562 119.46 36.4752 119.46 35.9736V36.0304ZM119.839 39.2452H122.94V49.9677H119.839V39.2452Z" fill="#04042B"/>
<path d="M135.269 43.8414V49.9685H132.375V48.6447C132.015 49.1606 131.524 49.571 130.952 49.8336C130.38 50.0963 129.749 50.2016 129.123 50.1387C126.626 50.1387 125.132 48.7393 125.132 46.9049C125.132 45.0706 126.456 43.709 129.709 43.709H132.167C132.167 42.3852 131.373 41.6098 129.709 41.6098C128.609 41.6055 127.537 41.9498 126.645 42.5932L125.529 40.4374C126.9 39.563 128.5 39.1155 130.125 39.1514C133.378 39.0947 135.269 40.6076 135.269 43.8414ZM132.167 46.5456V45.4488H130.049C128.612 45.4488 128.158 45.9972 128.158 46.6969C128.158 47.3966 128.82 48.0017 129.917 48.0017C130.394 48.0224 130.866 47.8931 131.266 47.632C131.667 47.3708 131.975 46.991 132.148 46.5456H132.167Z" fill="#04042B"/>
</g>
<defs>
<clipPath id="clip0_958_76998">
<rect width="146.428" height="58" fill="white" transform="translate(0 0.458984)"/>
</clipPath>
</defs>
</svg>
