<svg width="87" height="94" viewBox="0 0 87 94" fill="none" xmlns="http://www.w3.org/2000/svg">
<g clip-path="url(#clip0_958_76917)">
<path d="M5.95575 92.5561H7.97151V93.3008H5.15967V88.4346H5.95575V92.5561Z" fill="#406D11"/>
<path d="M10.1318 93.3008V88.4346H10.9279V93.3008H10.1318Z" fill="#406D11"/>
<path d="M15.5747 90.8355H18.1426C18.1637 91.5151 17.9143 92.1754 17.4492 92.6715C17.2242 92.9062 16.9527 93.0915 16.652 93.2153C16.3513 93.3391 16.0282 93.3987 15.7031 93.3905C15.3722 93.3994 15.043 93.3402 14.736 93.2165C14.429 93.0928 14.1507 92.9073 13.9184 92.6715C13.6835 92.4338 13.4998 92.1506 13.3783 91.8393C13.2569 91.5279 13.2004 91.1951 13.2122 90.8612C13.2013 90.1947 13.4499 89.5501 13.9055 89.0636C14.137 88.8311 14.4136 88.6485 14.7183 88.5271C15.0231 88.4056 15.3495 88.3479 15.6774 88.3575C16.2403 88.3482 16.7907 88.5241 17.2438 88.8582C17.6714 89.168 17.9688 89.6256 18.0784 90.1422H17.2566C17.1569 89.8341 16.9525 89.5706 16.6789 89.3975C16.3891 89.208 16.0493 89.1096 15.7031 89.115C15.3973 89.1044 15.0948 89.1801 14.83 89.3333C14.5753 89.4742 14.3693 89.6891 14.2394 89.9495C14.0625 90.2952 13.9913 90.6854 14.0347 91.0713C14.0781 91.4572 14.2341 91.8216 14.4833 92.1194C14.6417 92.2809 14.8319 92.4077 15.0419 92.4917C15.2519 92.5756 15.4771 92.615 15.7031 92.6073C16.0652 92.6139 16.4201 92.5061 16.7174 92.2992C16.9943 92.1094 17.1946 91.8272 17.2823 91.5031H15.549L15.5747 90.8355Z" fill="#406D11"/>
<path d="M23.4809 88.4346H24.2898V93.3008H23.4809V91.1822H21.2597V93.3008H20.4636V88.4346H21.2597V90.4247H23.4809V88.4346Z" fill="#406D11"/>
<path d="M30.0817 88.4346V89.1793H28.6565V93.3008H27.9247V89.1793H26.4995V88.4346H30.0817Z" fill="#406D11"/>
<path d="M38.1951 88.4346H39.0681L37.1679 93.3008H36.4232L34.4973 88.4346H35.3704L36.7956 92.158L38.1951 88.4346Z" fill="#406D11"/>
<path d="M41.933 92.5432H44.0386V93.3008H41.137V88.4346H43.9616V89.1921H41.933V90.4761H43.7819V91.1822H41.933V92.5432Z" fill="#406D11"/>
<path d="M49.5744 88.4346H50.3576V93.3008H49.7541L47.1863 89.8213V93.3008H46.4031V88.4346H47.1221L49.5872 91.8499L49.5744 88.4346Z" fill="#406D11"/>
<path d="M56.173 88.4346V89.1793H54.7478V93.3008H53.9518V89.1793H52.5266V88.4346H56.173Z" fill="#406D11"/>
<path d="M60.2147 93.3906C59.9572 93.3996 59.7004 93.3565 59.46 93.2639C59.2195 93.1712 59.0002 93.0309 58.8152 92.8513C58.6299 92.6748 58.4838 92.4613 58.3865 92.2246C58.2892 91.9879 58.2428 91.7333 58.2503 91.4775V88.4346H59.0592V91.4262C59.0511 91.5839 59.0754 91.7416 59.1306 91.8896C59.1858 92.0375 59.2707 92.1726 59.3802 92.2864C59.6027 92.5006 59.8995 92.6202 60.2083 92.6202C60.5171 92.6202 60.814 92.5006 61.0365 92.2864C61.1459 92.1726 61.2309 92.0375 61.2861 91.8896C61.3413 91.7416 61.3656 91.5839 61.3575 91.4262V88.4346H62.1535V91.4775C62.1635 91.7325 62.1195 91.9867 62.0243 92.2235C61.9292 92.4602 61.7851 92.6742 61.6014 92.8513C61.418 93.0293 61.2008 93.1687 60.9627 93.2613C60.7245 93.3539 60.4702 93.3979 60.2147 93.3906Z" fill="#406D11"/>
<path d="M67.4966 93.3009L66.4566 91.5033H65.5321V93.3009H64.7361V88.4347H66.6235C66.9131 88.4312 67.1993 88.4973 67.458 88.6273C67.6981 88.7589 67.9012 88.9487 68.0486 89.1794C68.1886 89.421 68.2596 89.6963 68.2541 89.9754C68.2579 90.2875 68.1636 90.5929 67.9845 90.8485C67.8016 91.0936 67.5519 91.2808 67.2655 91.3878L68.3825 93.3009H67.4966ZM65.5321 89.1923V90.7458H66.5721C66.6911 90.7664 66.8127 90.7664 66.9316 90.7458C67.0322 90.7159 67.1244 90.6632 67.2012 90.5917C67.2793 90.5204 67.3407 90.4328 67.381 90.335C67.4003 90.2289 67.4003 90.1201 67.381 90.014C67.3846 89.9095 67.3645 89.8056 67.3222 89.7099C67.28 89.6143 67.2167 89.5295 67.1371 89.4618C67.052 89.3855 66.9525 89.3268 66.8444 89.2894C66.7364 89.2519 66.622 89.2363 66.5079 89.2436L65.5321 89.1923Z" fill="#406D11"/>
<path d="M71.4368 92.5432H73.5296V93.3008H70.6279V88.4346H73.4526V89.1921H71.4368V90.4761H73.2728V91.1822H71.4368V92.5432Z" fill="#406D11"/>
<path d="M77.3951 93.378C77.0631 93.3795 76.7347 93.3094 76.4322 93.1726C76.1697 93.0539 75.9468 92.8623 75.7902 92.6205C75.6434 92.3625 75.568 92.07 75.5719 91.7731H76.368C76.3644 91.8901 76.3894 92.0063 76.4408 92.1114C76.4923 92.2166 76.5686 92.3076 76.6633 92.3765C76.8728 92.5366 77.1317 92.6183 77.3951 92.6076C77.6363 92.6144 77.8738 92.5473 78.0756 92.4151C78.1603 92.3562 78.2291 92.2773 78.2762 92.1855C78.3232 92.0937 78.3469 91.9918 78.3452 91.8886C78.3587 91.8208 78.3587 91.751 78.3452 91.6832C78.3223 91.6183 78.2824 91.5606 78.2297 91.5163L78.0628 91.3879L77.8188 91.2852L77.5749 91.221L77.2796 91.1439L76.9458 91.0669L76.6376 90.9642C76.5342 90.934 76.435 90.8908 76.3423 90.8358C76.2503 90.7906 76.1642 90.7346 76.0855 90.6689C75.9996 90.6054 75.9257 90.5272 75.8672 90.4378C75.8122 90.3451 75.7691 90.2459 75.7388 90.1425C75.7195 90.0148 75.7195 89.885 75.7388 89.7573C75.7312 89.5633 75.7677 89.37 75.8455 89.1921C75.9233 89.0142 76.0405 88.8563 76.1882 88.7302C76.5612 88.4643 77.0154 88.3371 77.4722 88.3706C77.936 88.3281 78.3977 88.4712 78.7561 88.7687C78.906 88.9069 79.0239 89.0761 79.1015 89.2646C79.1791 89.4531 79.2146 89.6563 79.2055 89.86H78.4095C78.4157 89.7539 78.3955 89.648 78.3507 89.5516C78.3059 89.4552 78.2378 89.3715 78.1527 89.3079C77.9662 89.1737 77.7402 89.106 77.5107 89.1153C77.2869 89.1099 77.0656 89.163 76.8687 89.2694C76.7913 89.3185 76.7281 89.387 76.6853 89.4681C76.6426 89.5491 76.6217 89.64 76.6248 89.7316C76.6019 89.807 76.6019 89.8874 76.6248 89.9627C76.6648 90.024 76.7122 90.08 76.766 90.1296C76.8414 90.1829 76.9234 90.2262 77.01 90.2581L77.2924 90.3479L77.6262 90.4378L77.8959 90.5019H78.1398L78.3966 90.5918L78.6277 90.7074C78.706 90.7454 78.7793 90.7928 78.846 90.8486L79.0129 91.0156C79.0731 91.0789 79.121 91.1529 79.1541 91.2338C79.194 91.3201 79.2241 91.4105 79.244 91.5035C79.2564 91.6058 79.2564 91.7093 79.244 91.8116C79.258 92.0227 79.2195 92.2339 79.1322 92.4265C79.0448 92.6192 78.9112 92.7872 78.7433 92.9158C78.3646 93.2278 77.8856 93.3921 77.3951 93.378Z" fill="#406D11"/>
<path d="M46.052 65.0797C46.1108 64.3613 46.0588 63.6382 45.8979 62.9355C45.6577 62.3169 45.2016 61.8061 44.614 61.4975C43.7078 61.0485 42.9004 60.4232 42.239 59.6581C41.5776 58.8931 41.0755 58.0037 40.7621 57.0422C40.7621 57.0422 40.6851 57.0422 40.6081 56.9652C40.6854 58.0306 41.0394 59.0573 41.6352 59.9439C41.7508 60.1365 41.8792 60.5089 41.7893 60.6245C41.315 61.2423 41.0049 61.9703 40.8882 62.7404C40.7714 63.5105 40.8518 64.2977 41.1216 65.0284L39.2856 64.4891L39.5167 64.3351C39.3209 63.7747 39.058 63.24 38.7335 62.7429C37.2926 61.084 36.1461 59.1906 35.3439 57.1449C35.9217 57.3632 36.3454 57.5686 36.7948 57.7099C37.2441 57.8511 37.6807 57.9538 38.0787 58.0822C32.0955 54.4101 29.4891 48.7223 28.2565 42.2769C29.2067 43.381 30.1311 44.6008 31.1839 45.6793C32.2646 46.7991 33.6709 47.5494 35.2027 47.8235L34.8046 47.5539C32.4993 46.1697 30.5891 44.2152 29.258 41.8788C28.1508 40.1642 27.5032 38.1938 27.3773 36.1567C27.2514 34.1195 27.6514 32.0842 28.539 30.2463C28.6218 30.0377 28.7578 29.8544 28.9335 29.7147C29.1093 29.575 29.3185 29.4838 29.5405 29.4503C30.3743 29.362 31.1443 28.9633 31.6975 28.3332C30.7242 28.6159 29.7271 28.8093 28.7187 28.911C28.3934 28.9518 28.0631 28.8987 27.7669 28.7581C27.4706 28.6174 27.2208 28.395 27.0467 28.117C26.8727 27.8391 26.7817 27.5172 26.7845 27.1893C26.7873 26.8613 26.8837 26.5411 27.0624 26.2661C27.2422 25.8553 27.4862 25.4701 27.7815 24.9822L25.0852 25.1619C25.5346 24.6612 25.8812 24.3145 26.1894 23.878C26.3823 23.6419 26.5382 23.3777 26.6516 23.0947C26.8956 22.4528 27.0753 21.8108 27.3706 21.1688C27.6243 20.8079 27.9267 20.4838 28.2694 20.2059L28.6417 20.5012L28.7316 19.3713L29.2708 20.2059L29.5918 19.5126L30.0541 20.0262L30.4521 19.4484L30.863 19.7437C31.4664 19.2301 31.9029 19.2429 32.3395 19.7437C32.776 20.2444 32.5963 20.8607 31.3252 21.7081L31.7489 22.0034C32.6733 22.6582 33.6491 23.2873 34.535 23.9807C35.3102 24.5843 35.8896 25.4038 36.2003 26.3359C36.511 27.268 36.5392 28.2711 36.2812 29.2192C36.1785 29.7328 35.9987 30.2463 35.8575 30.7599L36.0501 30.8241C36.3505 30.2297 36.6122 29.6164 36.8333 28.9881C36.9804 28.3102 37.0876 27.6243 37.1543 26.9338C37.4851 27.7548 37.64 28.6361 37.609 29.5207C37.5781 30.4054 37.3619 31.2737 36.9745 32.0696L37.2442 32.1466L38.3997 29.2449C38.7278 30.6314 38.5785 32.088 37.976 33.3791L38.2071 33.4562L39.2599 31.0809C39.6482 32.696 39.424 34.3977 38.6308 35.8571C38.8001 35.7612 38.9383 35.6187 39.0288 35.4463C39.3755 34.8429 39.7093 34.2266 40.0688 33.5718C40.1587 33.9955 40.2742 34.4063 40.3513 34.8557C40.5586 36.071 41.1278 37.1955 41.9846 38.082C42.8413 38.9686 43.9457 39.5759 45.1532 39.8246C45.6889 39.941 46.246 39.9107 46.7658 39.7366C47.2856 39.5626 47.7488 39.2514 48.1063 38.8359C47.346 39.1086 46.5304 39.1903 45.7312 39.0739C44.9319 38.9575 44.1735 38.6465 43.5226 38.1683C44.1776 38.127 44.8131 37.9295 45.376 37.5922C45.9389 37.2548 46.4129 36.7876 46.7582 36.2295C47.1177 35.716 47.4001 35.1382 47.7083 34.5989C48.4884 33.0672 49.3455 31.576 50.2762 30.1308C51.1927 28.9683 52.1879 27.8701 53.2549 26.8439C53.9996 28.0123 55.6045 27.9224 55.964 29.2834C54.6143 29.5995 53.3652 30.2483 52.3305 31.1708L55.4761 29.8868C55.5781 29.8334 55.6896 29.8006 55.8042 29.7904C55.9189 29.7802 56.0344 29.7927 56.1442 29.8273C56.254 29.8619 56.3558 29.9179 56.4439 29.992C56.532 30.0661 56.6045 30.1569 56.6574 30.2592L55.3734 30.6316V30.7214L56.6574 30.6443L56.7729 30.914C56.5283 31.0943 56.2658 31.2492 55.9897 31.3762C54.7956 31.7614 53.5631 32.0567 52.3947 32.5061C51.8024 32.8167 51.2432 33.1867 50.7256 33.6102L50.8283 33.7515C52.1701 32.8648 53.6916 32.286 55.2835 32.0567C56.4904 31.8898 56.4905 31.8769 57.0554 33.0839H56.0668C56.3583 33.2328 56.6773 33.3202 57.004 33.3407L57.9028 33.5076C57.6588 34.5219 57.5947 34.5475 56.6189 34.4191C56.0683 34.321 55.5082 34.2866 54.9497 34.3165C54.0766 34.3165 53.2164 34.5475 52.3818 34.6759V34.8686C53.6658 34.8686 55.0396 34.8686 56.362 34.8686C57.2351 34.8686 57.2223 35.0226 57.5048 35.9214L56.3107 35.8058C56.6408 35.9823 56.9842 36.1325 57.3379 36.2552C57.6075 36.3707 58.0312 36.5505 58.044 36.7303C58.0569 36.91 57.8129 37.3337 57.6588 37.6547C55.9731 36.5481 53.9691 36.029 51.9581 36.1781C54.0456 36.4004 56.0358 37.176 57.723 38.425C57.8877 38.5174 58.0212 38.6568 58.1063 38.8254C58.1914 38.994 58.2244 39.1841 58.2009 39.3715C58.1775 39.5589 58.0988 39.7351 57.9748 39.8775C57.8508 40.02 57.6872 40.1222 57.5048 40.1712L56.1181 38.8873L56.0282 38.99L57.0682 40.2739L56.3878 41.9559C55.8046 40.2645 54.754 38.7732 53.3576 37.6547C54.1645 38.8991 54.9059 40.1848 55.5789 41.5065C55.9234 42.1557 56.0751 42.8899 56.0159 43.6225C55.9568 44.355 55.6893 45.0554 55.245 45.6409C55.059 45.8966 54.9318 46.1904 54.8727 46.5011C54.6925 47.2712 54.3614 47.9978 53.8986 48.6391C53.4358 49.2804 52.8505 49.8237 52.1764 50.2373C51.9045 50.3807 51.5901 50.4217 51.2905 50.3529C50.2633 50.1988 49.2619 49.8907 48.2347 49.8393C47.5656 49.892 46.9079 50.0435 46.2831 50.2887V50.507C47.4824 50.1699 48.7569 50.2148 49.9295 50.6353C50.4945 50.8665 51.2135 51.1618 51.4446 51.624C51.7415 52.5542 51.8973 53.5236 51.9068 54.5C51.9445 55.0031 51.8376 55.5066 51.5986 55.9509C50.9532 56.9227 50.259 57.8611 49.5186 58.7627C49.4159 58.8783 49.1078 58.7627 48.9666 58.9039C48.6719 59.109 48.4044 59.3506 48.1705 59.6229C48.0549 59.7642 48.0678 60.0339 47.9394 60.1494C47.6375 60.4812 47.4193 60.8804 47.3032 61.3138C47.187 61.7471 47.1763 62.2019 47.2717 62.6403C47.2717 63.3721 47.2717 64.1039 47.2717 64.8358L46.052 65.0797ZM30.375 23.4286V23.2745L29.6303 22.7224L28.8728 23.1975L28.9627 23.4286H30.375ZM29.3094 28.4231C28.295 28.0251 27.7558 27.4987 28.0254 26.3174C27.2936 27.4473 27.8457 28.2691 29.3094 28.4231Z" fill="url(#paint0_linear_958_76917)"/>
<path d="M74.4562 37.4498C74.8542 33.752 77.5377 31.4153 79.7075 28.3852C82.0315 34.2528 79.5021 37.5396 75.5604 40.1075C74.7775 40.5415 73.8559 40.6522 72.9925 40.4157C68.3832 36.1145 65.0963 31.5179 65.8666 26.1639L67.8696 27.6019C64.9078 24.2729 62.9882 20.1479 62.3486 15.7383C66.7911 20.0267 71.1565 23.6474 73.6473 28.3081V28.3979C73.5615 28.5555 73.5096 28.7294 73.4951 28.9083C73.4806 29.0871 73.5037 29.267 73.563 29.4364C73.6222 29.6057 73.7164 29.7608 73.8393 29.8915C73.9622 30.0223 74.1111 30.1258 74.2765 30.1955L73.8142 31.8646L67.5101 26.7288C69.4745 31.0942 73.3906 33.996 73.7244 37.5653C73.7886 38.0404 73.8656 38.5026 73.9426 38.9648L74.4049 39.0547L74.4562 37.4498Z" fill="url(#paint1_linear_958_76917)"/>
<path d="M65.8547 35.7549C68.5381 39.6067 72.0433 42.7781 71.9663 48.5173C73.5455 42.8294 77.102 40.621 80.3247 38.0274C81.6087 43.4328 77.9238 47.5029 70.7722 48.6585C65.1614 43.1761 64.5579 41.6482 65.8547 35.7549Z" fill="url(#paint2_linear_958_76917)"/>
<path d="M71.1529 17.612C71.1529 15.0441 71.1529 12.4762 71.2171 9.06087C75.9035 15.0569 76.584 19.2297 71.2171 22.003C66.4793 17.7404 60.8428 13.696 59.7515 7.19922C63.7702 10.7301 67.5578 13.8628 70.3697 17.6505L70.8447 18.7803L71.7178 20.3724L72.2314 20.3082L71.5637 18.7033L71.1529 17.612Z" fill="url(#paint3_linear_958_76917)"/>
<path d="M73.71 28.3972V28.2689C74.4033 25.0718 74.9939 21.8491 77.1253 19.2812C80.2709 24.417 78.5504 31.055 74.3006 30.1691C74.6729 29.5528 75.0453 28.9622 73.71 28.3972Z" fill="url(#paint4_linear_958_76917)"/>
<path d="M70.2957 14.6594C64.8775 10.371 63.2469 5.53056 60.8716 0.458984C63.4832 1.87572 65.7078 3.91092 67.3507 6.38649C68.9936 8.86205 70.0048 11.7025 70.2957 14.6594Z" fill="url(#paint5_linear_958_76917)"/>
<path d="M74.2768 54.6926C74.9059 58.4289 71.6447 59.4817 68.1781 59.9054C62.7213 60.5859 59.7682 63.5133 55.9036 65.6575C63.9154 65.4263 69.6803 62.653 75.0215 59.3276C74.2896 64.4634 57.6882 70.2283 44.6819 69.2653C32.7926 68.4051 20.6593 66.0812 8.42334 59.4304C35.2963 68.8288 55.2744 66.3636 70.3736 55.3602C66.8042 55.938 65.2378 53.1904 63.1964 51.1746C59.8196 47.7978 60.911 45.4226 62.2077 42.752C65.1608 45.9875 67.7287 48.9405 69.0126 52.1503C72.1069 50.4427 75.1242 48.7993 78.6037 46.8991C78.6936 48.4404 78.2627 49.9672 77.3801 51.234C76.4975 52.5008 75.2146 53.4341 73.7375 53.8837L71.1055 54.8723L71.8116 55.5914L74.2768 54.6926ZM55.3129 67.532L54.2858 67.9044L54.7866 68.8673L55.6468 68.1483L56.2502 67.6091L55.3129 67.532Z" fill="url(#paint6_linear_958_76917)"/>
<path d="M17.2691 83.08H13.6483L12.6211 75.5689L9.18019 83.1057H8.11453L4.64787 75.5689L3.63354 83.08H0L1.97728 70.0352H5.55946L8.64095 77.1353L11.7353 70.0352H15.3303L17.2691 83.08Z" fill="url(#paint7_linear_958_76917)"/>
<path d="M26.8873 72.9895H29.4552V83.0684H26.7846L26.4893 82.3494C25.6352 83.0574 24.5555 83.4355 23.4464 83.4151C22.4913 83.4281 21.5492 83.1936 20.7116 82.7346C19.92 82.2791 19.2709 81.6123 18.837 80.8087C18.372 79.9595 18.1374 79.0034 18.1565 78.0354C18.1247 77.3252 18.2406 76.6162 18.497 75.9531C18.7534 75.2901 19.1445 74.6876 19.6459 74.1836C20.1488 73.6799 20.7509 73.2864 21.4139 73.0278C22.077 72.7691 22.7866 72.6512 23.4977 72.6814C24.62 72.6656 25.7117 73.0476 26.5792 73.7598L26.8873 72.9895ZM22.3036 79.6917C22.5128 79.9075 22.7647 80.0772 23.0433 80.19C23.3219 80.3027 23.621 80.3561 23.9214 80.3465C24.2199 80.3558 24.5169 80.3024 24.7934 80.1896C25.0699 80.0768 25.3196 79.9071 25.5263 79.6917C25.9387 79.2437 26.1676 78.6571 26.1676 78.0482C26.1676 77.4394 25.9387 76.8527 25.5263 76.4048C25.3196 76.1893 25.0699 76.0196 24.7934 75.9068C24.5169 75.794 24.2199 75.7406 23.9214 75.7499C23.621 75.7404 23.3219 75.7937 23.0433 75.9064C22.7647 76.0192 22.5128 76.1889 22.3036 76.4048C21.8994 76.8567 21.6759 77.4419 21.6759 78.0482C21.6759 78.6546 21.8994 79.2397 22.3036 79.6917Z" fill="url(#paint8_linear_958_76917)"/>
<path d="M37.2998 72.9637H38.1986V76.1479H36.9146C36.4478 76.1167 35.9872 76.2687 35.6307 76.5716C35.3247 76.966 35.178 77.4609 35.2198 77.9583V83.0941H31.7532V73.0279H34.0643L34.6035 74.145C34.9399 73.7637 35.3554 73.4604 35.8211 73.2564C36.2868 73.0523 36.7915 72.9525 37.2998 72.9637Z" fill="url(#paint9_linear_958_76917)"/>
<path d="M44.4246 83.4787C43.6817 83.5076 42.9404 83.3885 42.2439 83.1284C41.5474 82.8683 40.9095 82.4724 40.3673 81.9637C39.3512 80.9392 38.781 79.5548 38.781 78.1119C38.781 76.6689 39.3512 75.2845 40.3673 74.26C41.4922 73.2861 42.9303 72.75 44.4182 72.75C45.9061 72.75 47.3441 73.2861 48.469 74.26C48.9783 74.7639 49.3826 75.3637 49.6586 76.0249C49.9345 76.6861 50.0766 77.3954 50.0766 78.1119C50.0766 78.8283 49.9345 79.5377 49.6586 80.1988C49.3826 80.86 48.9783 81.4598 48.469 81.9637C47.3732 82.982 45.9197 83.5265 44.4246 83.4787ZM42.8582 79.6269C43.2738 80.037 43.8343 80.2669 44.4182 80.2669C45.0021 80.2669 45.5625 80.037 45.9781 79.6269C46.3683 79.1783 46.5832 78.6037 46.5832 78.0091C46.5832 77.4145 46.3683 76.84 45.9781 76.3913C45.7786 76.1815 45.5372 76.0159 45.2696 75.9053C45.0019 75.7947 44.7141 75.7416 44.4246 75.7494C44.0281 75.7434 43.6375 75.8455 43.2947 76.0447C42.9671 76.2353 42.6967 76.5101 42.5115 76.8408C42.3278 77.2025 42.2353 77.6035 42.2419 78.0091C42.2318 78.3062 42.2811 78.6024 42.387 78.8802C42.4928 79.1579 42.653 79.4118 42.8582 79.6269Z" fill="url(#paint10_linear_958_76917)"/>
<path d="M59.7269 73.0148H62.0765V82.0024C62.11 82.694 61.9982 83.385 61.7483 84.0308C61.4984 84.6765 61.1159 85.2627 60.6256 85.7516C59.5443 86.7114 58.1276 87.2052 56.6839 87.1254C55.8067 87.1462 54.9341 86.9934 54.116 86.676C53.4056 86.3978 52.778 85.9428 52.2927 85.3541C51.8074 84.7654 51.4804 84.0625 51.3427 83.3121H54.6938C54.7587 83.4775 54.8556 83.6284 54.979 83.7562C55.1024 83.884 55.2498 83.9862 55.4128 84.0568C55.7923 84.2436 56.2096 84.3402 56.6325 84.3392C57.1801 84.3588 57.7139 84.1656 58.1219 83.8C58.3213 83.6244 58.479 83.4064 58.5834 83.1621C58.6878 82.9178 58.7363 82.6532 58.7254 82.3877V82.0923C57.9428 82.6023 57.0273 82.8703 56.0933 82.8627C55.4196 82.8774 54.75 82.7537 54.126 82.4994C53.5019 82.2452 52.9366 81.8657 52.4649 81.3845C51.9933 80.9032 51.6253 80.3303 51.3837 79.7012C51.1421 79.0722 51.032 78.4002 51.0602 77.727C51.0448 77.0587 51.1655 76.3942 51.415 75.7739C51.6644 75.1537 52.0373 74.5907 52.5111 74.1191C53.4119 73.254 54.5972 72.7467 55.845 72.6924C57.0928 72.638 58.3177 73.0402 59.2903 73.8237L59.7269 73.0148ZM56.6839 79.9739C56.9704 79.9823 57.2555 79.9307 57.5209 79.8223C57.7862 79.714 58.0259 79.5513 58.2247 79.3448C58.4256 79.1325 58.5824 78.8824 58.686 78.6091C58.7896 78.3358 58.8379 78.0447 58.8281 77.7526C58.8381 77.4643 58.7897 77.177 58.686 76.9079C58.5824 76.6387 58.4254 76.3933 58.2247 76.1862C58.0248 75.982 57.7846 75.8217 57.5193 75.7156C57.254 75.6094 56.9695 75.5599 56.6839 75.57C56.3987 75.5622 56.1148 75.6129 55.8499 75.7189C55.5849 75.8248 55.3444 75.9839 55.1432 76.1862C54.9424 76.3933 54.7855 76.6387 54.6818 76.9079C54.5781 77.177 54.5298 77.4643 54.5398 77.7526C54.53 78.0447 54.5783 78.3358 54.6819 78.6091C54.7855 78.8824 54.9423 79.1325 55.1432 79.3448C55.3438 79.5488 55.5839 79.7098 55.8488 79.8179C56.1137 79.9261 56.3978 79.9792 56.6839 79.9739Z" fill="url(#paint11_linear_958_76917)"/>
<path d="M70.4355 72.7194C70.9518 72.6953 71.467 72.7878 71.9426 72.9901C72.4183 73.1923 72.8423 73.4992 73.1831 73.8878C73.9055 74.7667 74.272 75.8845 74.2103 77.0206V83.0808H70.7436V77.4187C70.7436 76.2503 70.3071 75.6596 69.4597 75.6596C69.2595 75.6613 69.0607 75.6916 68.8691 75.7495C68.695 75.8082 68.5337 75.8997 68.394 76.0191C68.249 76.1283 68.1305 76.2687 68.0473 76.43C67.9474 76.6067 67.8739 76.797 67.8291 76.9949C67.776 77.2309 67.7502 77.4721 67.752 77.714V83.0808H64.2854V69.3555H67.7264V73.6566C68.4887 73.0311 69.4495 72.6987 70.4355 72.7194Z" fill="url(#paint12_linear_958_76917)"/>
<path d="M84.4173 72.9895H86.9852V83.0684H84.3147L84.0193 82.3494C83.1652 83.0574 82.0856 83.4355 80.9764 83.4151C80.0213 83.4281 79.0792 83.1936 78.2416 82.7346C77.45 82.2791 76.8009 81.6123 76.367 80.8087C75.9021 79.9595 75.6674 79.0034 75.6866 78.0354C75.6547 77.3252 75.7706 76.6162 76.027 75.9531C76.2834 75.2901 76.6746 74.6876 77.1759 74.1836C77.6788 73.6799 78.2809 73.2864 78.944 73.0278C79.6071 72.7691 80.3166 72.6512 81.0277 72.6814C82.15 72.6656 83.2417 73.0476 84.1092 73.7598L84.4173 72.9895ZM79.8337 79.6917C80.2651 80.1113 80.8432 80.346 81.445 80.346C82.0468 80.346 82.6249 80.1113 83.0564 79.6917C83.4687 79.2437 83.6976 78.6571 83.6976 78.0482C83.6976 77.4394 83.4687 76.8527 83.0564 76.4048C82.8497 76.1893 82.6 76.0196 82.3235 75.9068C82.047 75.794 81.7499 75.7406 81.4514 75.7499C81.151 75.7404 80.8519 75.7937 80.5734 75.9064C80.2948 76.0192 80.0428 76.1889 79.8337 76.4048C79.4294 76.8567 79.2059 77.4419 79.2059 78.0482C79.2059 78.6546 79.4294 79.2397 79.8337 79.6917Z" fill="url(#paint13_linear_958_76917)"/>
</g>
<defs>
<linearGradient id="paint0_linear_958_76917" x1="24.6358" y1="23.6725" x2="56.85" y2="55.8867" gradientUnits="userSpaceOnUse">
<stop stop-color="#406D11"/>
<stop offset="1" stop-color="#34B44A"/>
</linearGradient>
<linearGradient id="paint1_linear_958_76917" x1="71.8035" y1="38.9797" x2="73.2105" y2="14.9504" gradientUnits="userSpaceOnUse">
<stop stop-color="#0AA00A"/>
<stop offset="1" stop-color="#F9ED32"/>
</linearGradient>
<linearGradient id="paint2_linear_958_76917" x1="73.2487" y1="47.2857" x2="73.9919" y2="34.7395" gradientUnits="userSpaceOnUse">
<stop stop-color="#0AA00A"/>
<stop offset="1" stop-color="#F9ED32"/>
</linearGradient>
<linearGradient id="paint3_linear_958_76917" x1="67.6602" y1="20.3699" x2="68.4963" y2="6.30397" gradientUnits="userSpaceOnUse">
<stop stop-color="#0AA00A"/>
<stop offset="1" stop-color="#F9ED32"/>
</linearGradient>
<linearGradient id="paint4_linear_958_76917" x1="76.4835" y1="28.898" x2="77.1339" y2="17.8854" gradientUnits="userSpaceOnUse">
<stop stop-color="#0AA00A"/>
<stop offset="1" stop-color="#F9ED32"/>
</linearGradient>
<linearGradient id="paint5_linear_958_76917" x1="65.863" y1="13.0072" x2="66.6595" y2="-0.575727" gradientUnits="userSpaceOnUse">
<stop stop-color="#0AA00A"/>
<stop offset="1" stop-color="#F9ED32"/>
</linearGradient>
<linearGradient id="paint6_linear_958_76917" x1="39.314" y1="65.0648" x2="43.9206" y2="35.97" gradientUnits="userSpaceOnUse">
<stop stop-color="#0AA00A"/>
<stop offset="1" stop-color="#F9ED32"/>
</linearGradient>
<linearGradient id="paint7_linear_958_76917" x1="0" y1="76.5704" x2="17.2691" y2="76.5704" gradientUnits="userSpaceOnUse">
<stop stop-color="#0AA00A"/>
<stop offset="0.99" stop-color="#34B44A"/>
<stop offset="1" stop-color="#3F7014"/>
</linearGradient>
<linearGradient id="paint8_linear_958_76917" x1="18.1694" y1="78.0611" x2="29.468" y2="78.0611" gradientUnits="userSpaceOnUse">
<stop stop-color="#0AA00A"/>
<stop offset="0.99" stop-color="#34B44A"/>
<stop offset="1" stop-color="#3F7014"/>
</linearGradient>
<linearGradient id="paint9_linear_958_76917" x1="31.6633" y1="78.0225" x2="38.2114" y2="78.0225" gradientUnits="userSpaceOnUse">
<stop stop-color="#0AA00A"/>
<stop offset="0.99" stop-color="#34B44A"/>
<stop offset="1" stop-color="#3F7014"/>
</linearGradient>
<linearGradient id="paint10_linear_958_76917" x1="38.7752" y1="78.0476" x2="50.0739" y2="78.0476" gradientUnits="userSpaceOnUse">
<stop stop-color="#0AA00A"/>
<stop offset="0.99" stop-color="#34B44A"/>
<stop offset="1" stop-color="#3F7014"/>
</linearGradient>
<linearGradient id="paint11_linear_958_76917" x1="51.0731" y1="79.8968" x2="62.0765" y2="79.8968" gradientUnits="userSpaceOnUse">
<stop stop-color="#0AA00A"/>
<stop offset="0.99" stop-color="#34B44A"/>
<stop offset="1" stop-color="#3F7014"/>
</linearGradient>
<linearGradient id="paint12_linear_958_76917" x1="64.2726" y1="76.2246" x2="74.2103" y2="76.2246" gradientUnits="userSpaceOnUse">
<stop stop-color="#0AA00A"/>
<stop offset="0.99" stop-color="#34B44A"/>
<stop offset="1" stop-color="#3F7014"/>
</linearGradient>
<linearGradient id="paint13_linear_958_76917" x1="75.7122" y1="78.0611" x2="87.0109" y2="78.0611" gradientUnits="userSpaceOnUse">
<stop stop-color="#0AA00A"/>
<stop offset="0.99" stop-color="#34B44A"/>
<stop offset="1" stop-color="#3F7014"/>
</linearGradient>
<clipPath id="clip0_958_76917">
<rect width="87" height="92.919" fill="white" transform="translate(0 0.458984)"/>
</clipPath>
</defs>
</svg>
