<svg width="147" height="59" viewBox="0 0 147 59" fill="none" xmlns="http://www.w3.org/2000/svg">
<g clip-path="url(#clip0_958_76948)">
<path d="M63.6997 13.0087H63.4741C63.4245 12.9169 63.3834 12.8209 63.3511 12.7217C63.4608 12.8056 63.5637 12.8981 63.6587 12.9985L63.6997 13.0087Z" fill="black"/>
<path d="M86.4304 16.1559C86.1251 15.4417 85.7581 14.7555 85.3333 14.1053C85.235 13.9933 85.1134 13.9041 84.9771 13.8439C84.8407 13.7837 84.6929 13.754 84.5439 13.7567H82.5446V25.7935C82.5228 26.0459 82.5228 26.2998 82.5446 26.5522C82.5992 26.7661 82.7215 26.9567 82.8932 27.0956C83.1694 27.3119 83.4988 27.45 83.8467 27.4954V28.0901H77.9103V27.4954C78.2618 27.4518 78.5949 27.3136 78.8741 27.0956C79.0458 26.9567 79.168 26.7661 79.2227 26.5522C79.2444 26.2998 79.2444 26.0459 79.2227 25.7935V13.7567H77.3259H77.0798C77.0049 13.775 76.9326 13.8025 76.8645 13.8387L76.68 13.9515C76.6148 14.0098 76.5564 14.0752 76.5057 14.1464L76.3314 14.3821C76.3314 14.4437 76.2289 14.5462 76.1468 14.7L75.952 15.0999L75.706 15.5817L75.4394 16.1353H74.855V12.4238H87.0661V16.1353L86.4304 16.1559Z" fill="#440A07"/>
<path d="M95.9146 22.1124H88.8914C88.8702 23.2249 89.2322 24.3109 89.9167 25.1882C90.2605 25.5445 90.6784 25.821 91.1408 25.9982C91.6032 26.1753 92.0988 26.2488 92.5927 26.2135C93.7083 26.2561 94.8015 25.8917 95.6685 25.1882V25.7624C95.3958 26.573 94.8433 27.2599 94.1101 27.7002C93.0254 28.2768 91.7872 28.4989 90.5697 28.3352C89.3522 28.1715 88.2166 27.6303 87.3227 26.7877C86.3079 25.5934 85.7872 24.0569 85.8668 22.4917C85.8221 20.9046 86.3787 19.3592 87.4253 18.1651C87.9813 17.5754 88.6592 17.114 89.4117 16.813C90.1643 16.512 90.9734 16.3786 91.7827 16.4221C92.2714 16.4185 92.7581 16.4841 93.2283 16.6169C93.7171 16.7594 94.1807 16.9773 94.6022 17.2628C95.0824 17.5937 95.4564 18.0566 95.6787 18.5957C95.9605 19.2597 96.0968 19.9764 96.0786 20.6975C96.0612 21.1727 96.0064 21.6458 95.9146 22.1124ZM93.4026 20.8718C93.4653 20.5337 93.4962 20.1905 93.4949 19.8466C93.5455 19.1507 93.3455 18.4597 92.931 17.8985C92.7634 17.6849 92.5482 17.5134 92.3025 17.3977C92.0569 17.282 91.7876 17.2253 91.5161 17.2321C89.8962 17.2321 89.0247 18.5137 88.9222 21.0974L93.4026 20.8718Z" fill="#440A07"/>
<path d="M106.547 22.1126H99.5339C99.5076 23.2259 99.8701 24.3136 100.559 25.1884C100.901 25.5451 101.317 25.8219 101.777 25.9991C102.238 26.1764 102.732 26.2496 103.225 26.2137C104.341 26.2581 105.435 25.8935 106.301 25.1884V25.7626C106.028 26.5703 105.48 27.2563 104.753 27.7004C103.668 28.277 102.43 28.4991 101.212 28.3354C99.9947 28.1717 98.8591 27.6305 97.9652 26.7879C96.9468 25.5951 96.4223 24.0585 96.4991 22.4919C96.453 20.9028 97.0139 19.3557 98.0678 18.1653C98.6214 17.5753 99.2974 17.1136 100.048 16.8125C100.799 16.5114 101.607 16.3782 102.415 16.4223C102.904 16.4187 103.39 16.4843 103.861 16.6171C104.35 16.7577 104.814 16.9757 105.234 17.263C105.715 17.5939 106.089 18.0568 106.311 18.5959C106.596 19.2592 106.736 19.9758 106.721 20.6977C106.7 21.1731 106.642 21.6462 106.547 22.1126ZM104.035 20.872C104.102 20.5346 104.133 20.1908 104.127 19.8468C104.178 19.1509 103.978 18.4599 103.563 17.8987C103.396 17.6851 103.18 17.5136 102.935 17.3979C102.689 17.2822 102.42 17.2255 102.148 17.2323C100.528 17.2323 99.6569 18.5139 99.5544 21.0976L104.035 20.872Z" fill="#440A07"/>
<path d="M112.176 24.3893C111.773 23.9913 111.301 23.6714 110.781 23.446C110.238 23.2 109.695 22.9334 109.141 22.6566C108.588 22.3688 108.107 21.9584 107.736 21.457C107.3 20.8367 107.104 20.0797 107.183 19.3258C107.262 18.5719 107.612 17.8721 108.167 17.3559C109.099 16.595 110.29 16.2272 111.489 16.3306C112.632 16.3354 113.769 16.4906 114.872 16.792V19.4064H114.278C114.1 18.749 113.716 18.1664 113.18 17.7455C112.711 17.3718 112.13 17.166 111.53 17.1611C111.049 17.1325 110.574 17.2741 110.187 17.5609C110.037 17.6865 109.918 17.8435 109.836 18.0208C109.754 18.198 109.713 18.3911 109.715 18.5862C109.715 18.8194 109.766 19.0497 109.865 19.2606C109.965 19.4716 110.109 19.6579 110.289 19.8063C110.696 20.2023 111.163 20.5311 111.673 20.7803C112.217 21.0161 112.76 21.2827 113.304 21.5698C113.888 21.8562 114.386 22.2911 114.749 22.8309C115.147 23.4392 115.347 24.1552 115.323 24.8814C115.323 25.2619 115.246 25.6384 115.098 25.9888C114.916 26.3974 114.67 26.7745 114.37 27.1063C113.978 27.5215 113.488 27.8317 112.945 28.0085C112.247 28.2545 111.511 28.3726 110.771 28.3571C109.596 28.38 108.428 28.1673 107.336 27.7317L107.111 25.0455H107.685C108.341 26.6962 109.387 27.5267 110.812 27.5267C111.341 27.5521 111.859 27.372 112.258 27.0243C112.428 26.8703 112.564 26.6819 112.655 26.4715C112.747 26.2612 112.794 26.0337 112.791 25.8042C112.796 25.538 112.744 25.2736 112.638 25.0294C112.532 24.7851 112.374 24.5668 112.176 24.3893Z" fill="#440A07"/>
<path d="M88.5029 45.622C88.9519 46.3132 89.6143 46.8388 90.3894 47.119V47.7136H83.8994V47.119C84.4223 47.0164 84.7094 46.8011 84.7401 46.5038C84.7557 46.3156 84.7298 46.1262 84.6643 45.9491C84.5987 45.7719 84.4951 45.6113 84.3608 45.4785L81.0696 40.5777L79.6958 41.8901V45.3862C79.6752 45.6387 79.6752 45.8925 79.6958 46.1449C79.7582 46.3579 79.8833 46.5473 80.0546 46.6884C80.3287 46.9083 80.6591 47.0468 81.0081 47.0882V47.6829H75.0718V47.0882C75.4208 47.0468 75.7512 46.9083 76.0253 46.6884C76.1967 46.5473 76.3217 46.3579 76.3841 46.1449C76.4047 45.8925 76.4047 45.6387 76.3841 45.3862V34.3748C76.4043 34.1188 76.4043 33.8617 76.3841 33.6058C76.3247 33.3942 76.1989 33.2073 76.0253 33.0726C75.7523 32.849 75.4219 32.7069 75.0718 32.6626V32.0576H81.0081V32.6523C80.6581 32.6966 80.3276 32.8387 80.0546 33.0624C79.881 33.197 79.7552 33.384 79.6958 33.5955C79.6756 33.8515 79.6756 34.1086 79.6958 34.3645V40.1573L85.909 34.2722C86.1025 34.1002 86.2594 33.891 86.3703 33.657C86.4058 33.5579 86.4111 33.4504 86.3856 33.3482C86.36 33.246 86.3048 33.1537 86.2268 33.0829C85.9412 32.8313 85.5811 32.68 85.2015 32.6523V32.0576H90.0408V32.6523C89.0095 33.2051 88.0576 33.8949 87.2111 34.7029L83.5816 38.2093L88.5029 45.622Z" fill="#CF3419"/>
<path d="M93.8448 45.3864C93.8448 45.6325 93.8448 45.817 93.8448 45.9503C93.8727 46.1107 93.9138 46.2684 93.9678 46.422C94.0387 46.6037 94.1737 46.7531 94.3471 46.8423C94.5734 46.9582 94.8151 47.0411 95.0648 47.0884V47.683H89.7026V47.0884C89.9524 47.0411 90.1941 46.9582 90.4203 46.8423C90.5963 46.7564 90.7322 46.6058 90.7997 46.422C90.8537 46.2684 90.8948 46.1107 90.9227 45.9503C90.9227 45.817 90.9227 45.6325 90.9227 45.3864V39.5628C90.9227 39.3373 90.9227 39.1527 90.9227 39.0194C90.8925 38.8562 90.8514 38.6953 90.7997 38.5376C90.7279 38.346 90.5944 38.1837 90.4203 38.0762C90.1974 37.9485 89.9549 37.8584 89.7026 37.8096V37.2354L93.8038 35.9538L93.8448 45.3864ZM91.0765 32.3039C91.4355 31.9971 91.8965 31.8361 92.3684 31.8527C92.8291 31.8402 93.277 32.0054 93.6192 32.3141C93.7898 32.4629 93.9251 32.6476 94.0156 32.8551C94.106 33.0626 94.1492 33.2875 94.1421 33.5137C94.1519 33.7398 94.112 33.9653 94.0252 34.1744C93.9384 34.3834 93.8068 34.5708 93.6397 34.7235C93.276 35.0147 92.824 35.1734 92.3581 35.1734C91.8922 35.1734 91.4402 35.0147 91.0765 34.7235C90.9111 34.5695 90.7806 34.3819 90.6939 34.1732C90.6072 33.9645 90.5664 33.7395 90.5741 33.5137C90.5695 33.2928 90.6119 33.0734 90.6985 32.8701C90.7851 32.6668 90.914 32.4843 91.0765 32.3346V32.3039Z" fill="#CF3419"/>
<path d="M99.0826 45.0476C99.0431 45.3263 99.0708 45.6104 99.1636 45.8762C99.2563 46.142 99.4114 46.3816 99.6157 46.5752C100.279 46.8778 101.015 46.9879 101.738 46.8931V47.4878C100.772 47.8025 99.7605 47.9584 98.7442 47.9492C98.0679 47.9943 97.399 47.7859 96.868 47.3647C96.6258 47.1016 96.4421 46.7901 96.329 46.4508C96.2159 46.1115 96.1759 45.7521 96.2118 45.3962V37.3888H95.0327V36.8044L96.1605 36.2097L98.3751 33.9131H99.0826V36.2097H101.687V37.3888H99.0826V45.0476Z" fill="#CF3419"/>
<path d="M110.77 39.235C110.653 39.3526 110.514 39.4458 110.361 39.5091C110.208 39.5725 110.044 39.6048 109.878 39.6041C109.691 39.6134 109.504 39.5856 109.328 39.5223C109.152 39.4589 108.991 39.3613 108.853 39.235C108.731 39.1229 108.634 38.9865 108.569 38.8345C108.504 38.6826 108.471 38.5187 108.473 38.3533C108.485 37.9177 108.656 37.5017 108.955 37.1845C108.52 36.8754 107.991 36.7268 107.458 36.7641C107.036 36.7539 106.619 36.8545 106.249 37.056C105.878 37.2575 105.567 37.5529 105.346 37.9125C104.769 38.9459 104.505 40.1252 104.587 41.3061C104.587 44.2931 105.821 45.7866 108.289 45.7866C109.405 45.8329 110.499 45.4681 111.364 44.7613V45.3355C111.092 46.1431 110.544 46.8292 109.816 47.2733C108.732 47.8499 107.493 48.0719 106.276 47.9082C105.058 47.7446 103.923 47.2034 103.029 46.3607C102.06 45.1251 101.542 43.5948 101.563 42.0244C101.583 40.4539 102.14 38.9378 103.142 37.7279C103.714 37.134 104.408 36.6713 105.176 36.3722C105.944 36.073 106.769 35.9444 107.591 35.9952C108.467 35.9763 109.332 36.1847 110.103 36.6001C110.43 36.7469 110.708 36.9843 110.904 37.284C111.101 37.5838 111.207 37.9335 111.211 38.2918C111.207 38.4711 111.166 38.6477 111.09 38.8102C111.014 38.9727 110.905 39.1174 110.77 39.235Z" fill="#CF3419"/>
<path d="M115.262 38.3322C115.759 37.5954 116.401 36.9675 117.148 36.4867C117.738 36.1511 118.407 35.9777 119.086 35.9843C119.954 35.9336 120.808 36.2242 121.465 36.7943C121.768 37.1177 122.002 37.5007 122.15 37.9189C122.298 38.3372 122.358 38.7816 122.326 39.2242V45.3758C122.326 45.6219 122.326 45.8064 122.326 45.9397C122.353 46.1013 122.398 46.2595 122.459 46.4114C122.491 46.5032 122.541 46.5877 122.606 46.6599C122.671 46.7321 122.75 46.7905 122.839 46.8317C123.061 46.9478 123.299 47.0308 123.546 47.0778V47.6725H118.553V47.0778C118.8 47.025 119.019 46.8826 119.168 46.678C119.281 46.5149 119.358 46.3297 119.394 46.1345C119.408 45.8818 119.408 45.6285 119.394 45.3758V39.7881C119.422 39.5781 119.4 39.3646 119.331 39.1644C119.262 38.9642 119.148 38.7827 118.996 38.6345C118.845 38.4863 118.662 38.3753 118.46 38.3103C118.258 38.2454 118.045 38.2283 117.835 38.2604C116.893 38.2637 115.975 38.5612 115.21 39.1114V45.3861C115.21 45.6322 115.21 45.8167 115.21 45.95C115.238 46.1116 115.282 46.2698 115.344 46.4216C115.376 46.5135 115.426 46.598 115.491 46.6702C115.556 46.7424 115.635 46.8008 115.723 46.842C115.952 46.9594 116.198 47.0423 116.451 47.088V47.6827H111.068V47.088C111.325 47.0438 111.574 46.9608 111.807 46.842C111.983 46.7561 112.118 46.6055 112.186 46.4216C112.249 46.2712 112.291 46.1123 112.309 45.95C112.322 45.7623 112.322 45.5738 112.309 45.3861V34.3952C112.316 34.2517 112.316 34.1079 112.309 33.9645C112.304 33.8293 112.283 33.695 112.247 33.5646C112.218 33.4189 112.154 33.2821 112.063 33.1648C111.955 33.0468 111.826 32.9495 111.684 32.8777C111.486 32.7768 111.276 32.7043 111.058 32.6624V32.0575L115.159 30.9092L115.262 38.3322Z" fill="#CF3419"/>
<path d="M133.788 41.7364H126.765C126.745 42.8487 127.107 43.9341 127.79 44.8122C128.132 45.1688 128.548 45.4457 129.008 45.6229C129.469 45.8001 129.963 45.8734 130.456 45.8375C131.572 45.88 132.665 45.5157 133.532 44.8122V45.3864C133.255 46.1948 132.704 46.8806 131.973 47.3242C130.889 47.9008 129.65 48.1229 128.433 47.9592C127.215 47.7955 126.08 47.2543 125.186 46.4116C124.167 45.2189 123.643 43.6822 123.72 42.1157C123.674 40.5265 124.235 38.9795 125.288 37.7891C125.843 37.1996 126.519 36.7383 127.269 36.4372C128.02 36.1362 128.828 36.0027 129.636 36.0461C130.128 36.0418 130.618 36.1074 131.092 36.2409C131.579 36.3772 132.041 36.5956 132.455 36.8868C132.937 37.2187 133.314 37.6811 133.542 38.2197C133.817 38.8679 133.953 39.5663 133.942 40.2702C133.931 40.7623 133.879 41.2527 133.788 41.7364ZM131.276 40.4958C131.339 40.1576 131.37 39.8144 131.368 39.4705C131.419 38.7746 131.219 38.0837 130.804 37.5225C130.636 37.3088 130.421 37.1366 130.176 37.0192C129.931 36.9019 129.662 36.8426 129.39 36.8458C127.759 36.8458 126.898 38.1377 126.785 40.7214L131.276 40.4958Z" fill="#CF3419"/>
<path d="M138.331 38.3323C138.827 37.5985 139.465 36.9711 140.207 36.4868C140.8 36.1499 141.473 35.9765 142.155 35.9844C143.02 35.9319 143.871 36.223 144.523 36.7944C144.824 37.1197 145.054 37.5032 145.201 37.9211C145.347 38.3391 145.406 38.7826 145.374 39.2243V45.3759C145.374 45.622 145.374 45.8065 145.374 45.9398C145.401 46.1014 145.446 46.2596 145.508 46.4115C145.54 46.5033 145.59 46.5878 145.655 46.66C145.72 46.7322 145.799 46.7906 145.887 46.8318C146.116 46.9492 146.361 47.0322 146.615 47.0779V47.6725H141.601V47.0779C141.789 47.0295 141.967 46.9459 142.124 46.8318C142.269 46.7278 142.376 46.5806 142.432 46.4115C142.48 46.2585 142.507 46.1 142.514 45.9398C142.514 45.8065 142.514 45.622 142.514 45.3759V39.7882C142.514 38.7629 141.981 38.2605 140.925 38.2605C139.989 38.266 139.079 38.5635 138.32 39.1115V45.3862C138.32 45.6323 138.32 45.8168 138.32 45.9501C138.347 46.1117 138.392 46.2699 138.454 46.4217C138.486 46.5136 138.536 46.5981 138.601 46.6703C138.666 46.7425 138.745 46.8009 138.833 46.8421C139.056 46.9582 139.294 47.041 139.54 47.0881V47.6828H134.178V47.0881C134.428 47.0425 134.67 46.9595 134.896 46.8421C135.066 46.7496 135.195 46.5956 135.255 46.4115C135.318 46.261 135.36 46.1021 135.378 45.9398C135.391 45.7521 135.391 45.5637 135.378 45.3759V39.5524C135.391 39.3715 135.391 39.1899 135.378 39.009C135.358 38.8438 135.316 38.6818 135.255 38.5271C135.183 38.3355 135.05 38.1732 134.875 38.0657C134.653 37.9362 134.41 37.846 134.158 37.7991V37.225L138.259 35.9434L138.331 38.3323Z" fill="#CF3419"/>
<path d="M47.0097 14.5053H46.8149C46.8149 14.4233 46.7432 14.3413 46.7124 14.2695C46.8063 14.3423 46.8953 14.421 46.979 14.5053H47.0097Z" fill="black"/>
<path d="M55.0766 19.7539L55.1382 19.9282C55.0522 19.9295 54.9673 19.9083 54.8921 19.8667L55.0766 19.7539Z" fill="black"/>
<path d="M47.0097 14.5053H46.8149H46.4663C46.5316 14.4141 46.5834 14.314 46.6201 14.208L46.7124 14.2593C46.8062 14.332 46.8953 14.4108 46.9789 14.4951L47.0097 14.5053Z" fill="black"/>
<path d="M63.4043 51.0464C61.7066 52.6452 59.6654 53.8341 57.4372 54.522C56.8582 54.7122 56.2454 54.7777 55.6393 54.7141C55.0332 54.6505 54.4474 54.4592 53.9205 54.1529C53.4222 53.7402 53.008 53.2355 52.7004 52.6663C50.1474 48.5651 44.2931 41.9521 46.1591 36.7129C47.3484 33.391 50.6806 32.8579 53.7359 34.0062C58.1651 35.6672 62.1945 39.6145 65.26 43.0902C65.5594 43.3902 65.8087 43.7364 65.9982 44.1155C67.0748 46.4839 65.5369 49.0368 63.4043 51.0464Z" fill="#440A07"/>
<path d="M19.8701 38.661C19.4105 38.7774 18.9394 38.8428 18.4654 38.8558C13.6569 39.1839 5.0548 41.2139 1.31253 37.0821C-1.05586 34.4779 0.0514376 31.2892 2.51211 29.1259C6.05957 26.0501 11.4423 24.3276 15.9535 23.2613C16.3556 23.1408 16.7745 23.0855 17.1941 23.0973C17.642 23.1278 18.0819 23.2317 18.4962 23.4048C18.5908 27.8122 18.9331 32.2107 19.5215 36.5796C19.6548 37.2358 19.747 37.933 19.8701 38.661Z" fill="#CF3419"/>
<path d="M43.9036 50.5129V50.3899C42.3506 47.0237 41.015 43.5615 39.905 40.0244C36.9718 30.4817 35.7499 20.4954 36.296 10.5271C36.3339 8.81024 36.4846 7.09775 36.7472 5.40069C37.0958 3.66797 39.0028 0.6639 35.9064 0.59213C32.8101 0.520361 28.5962 0.223035 25.6536 1.23806C22.8444 2.19157 22.5778 4.72401 22.4855 7.52302C22.383 12.106 22.3215 16.7506 22.4855 21.3233C22.5754 25.7309 22.9177 30.1297 23.5108 34.4981C23.6133 35.144 23.7056 35.8412 23.8287 36.5487C24.8539 43.295 26.9045 52.8403 32.1129 56.7364C34.9222 58.7869 40.0588 58.951 43.2269 57.5874C46.9077 55.9572 45.1544 53.2914 43.9036 50.5129Z" fill="#F7AD32"/>
<path d="M55.1382 19.9497C55.0522 19.951 54.9673 19.9298 54.8921 19.8882L55.0766 19.7754L55.1382 19.9497Z" fill="black"/>
<path d="M46.9594 14.4644H46.4468C46.512 14.3731 46.5638 14.273 46.6006 14.167L46.6928 14.2182C46.787 14.2943 46.8761 14.3766 46.9594 14.4644Z" fill="black"/>
<path d="M58.9728 9.64531C57.3631 13.2851 55.6099 16.8223 53.7747 20.4005C52.2573 23.3328 50.0734 29.4434 46.1158 29.7715C45.3332 29.8427 44.5508 29.6331 43.9085 29.1805C43.2661 28.7278 42.8057 28.0615 42.6094 27.3006C42.3735 26.1247 42.3526 24.9159 42.5479 23.7326C42.982 19.0318 42.9545 14.2997 42.4658 9.60426C42.2095 6.95904 41.5431 3.145 44.7625 2.0377C48.556 0.725345 52.4213 2.16077 56.2456 1.82243C57.9886 1.66864 60.7876 1.69937 60.9209 4.09852C60.9026 4.9467 60.696 5.78021 60.3159 6.53869C59.8751 7.58447 59.4342 8.60978 58.9728 9.64531Z" fill="#F7AD32"/>
<path d="M78.2483 53.1788C78.1788 53.0669 78.0882 52.9694 77.9818 52.8917C77.8672 52.8119 77.7473 52.74 77.6229 52.6764L77.2333 52.4509C77.1092 52.3807 76.9924 52.2983 76.8847 52.2048C76.7717 52.1092 76.6808 51.9903 76.6181 51.8562C76.5497 51.7084 76.5147 51.5474 76.5156 51.3846C76.5127 51.244 76.5417 51.1046 76.6003 50.9767C76.6588 50.8489 76.7456 50.736 76.854 50.6464C77.1111 50.4383 77.436 50.3324 77.7664 50.3491C77.8927 50.3381 78.0196 50.3381 78.1458 50.3491C78.2413 50.3397 78.3374 50.3397 78.4329 50.3491L78.7815 50.4516V51.2205H78.6585C78.5663 51.0151 78.4338 50.8303 78.2688 50.6771C78.1238 50.57 77.9466 50.5158 77.7664 50.5234C77.6792 50.5172 77.5917 50.5285 77.509 50.5567C77.4262 50.5849 77.3499 50.6293 77.2846 50.6874C77.2224 50.7464 77.1736 50.8182 77.1418 50.8979C77.1099 50.9775 77.0957 51.0631 77.1 51.1488C77.0991 51.238 77.1159 51.3264 77.1493 51.4091C77.1828 51.4918 77.2322 51.5672 77.2948 51.6307C77.4267 51.7706 77.5831 51.8852 77.7562 51.969L78.2996 52.2663C78.4806 52.369 78.6378 52.5087 78.761 52.6764C78.8883 52.8523 78.9565 53.0642 78.9558 53.2814C78.9606 53.4371 78.9299 53.592 78.866 53.7341C78.802 53.8762 78.7065 54.0019 78.5867 54.1016C78.2885 54.3131 77.9261 54.4146 77.5614 54.3887C77.1888 54.3793 76.8195 54.3171 76.4644 54.2041V53.4249H76.5874C76.6807 53.6407 76.825 53.8306 77.0078 53.9785C77.1612 54.0931 77.3496 54.151 77.5409 54.1426C77.7489 54.1572 77.9546 54.0911 78.1151 53.958C78.1773 53.8947 78.2258 53.8192 78.2575 53.7363C78.2893 53.6534 78.3036 53.5649 78.2996 53.4762C78.3015 53.3747 78.2841 53.2737 78.2483 53.1788Z" fill="black"/>
<path d="M81.6529 52.2456V53.6503C81.6325 53.7621 81.6325 53.8768 81.6529 53.9886C81.6756 54.0241 81.7078 54.0525 81.7459 54.0707C81.7839 54.0888 81.8263 54.0959 81.8682 54.0911C81.9834 54.0882 82.0947 54.0487 82.186 53.9784V54.1014C82.1278 54.2035 82.0471 54.2912 81.9502 54.3577C81.8375 54.4317 81.7056 54.4709 81.5708 54.4705C81.253 54.4705 81.089 54.3064 81.089 53.9681C81.0009 54.1168 80.8768 54.2408 80.728 54.3286C80.5792 54.4164 80.4107 54.4652 80.238 54.4705C80.0258 54.4798 79.8177 54.4104 79.6536 54.2757C79.5836 54.2168 79.5279 54.1429 79.4906 54.0595C79.4533 53.976 79.4354 53.8852 79.4383 53.7938C79.4323 53.697 79.4476 53.6 79.483 53.5097C79.5184 53.4194 79.5731 53.3379 79.6433 53.2709C79.8397 53.1285 80.0629 53.0273 80.2995 52.9736L81.089 52.7583V52.2764C81.0934 52.1046 81.0432 51.9359 80.9454 51.7945C80.8872 51.7251 80.8128 51.671 80.7288 51.6371C80.6447 51.6031 80.5537 51.5903 80.4635 51.5997C80.2996 51.5952 80.1384 51.6417 80.0022 51.733C80.0703 51.8177 80.1098 51.9218 80.1149 52.0303C80.1164 52.0684 80.11 52.1064 80.096 52.1419C80.0821 52.1774 80.061 52.2096 80.0341 52.2365C80.0071 52.2635 79.9749 52.2845 79.9394 52.2985C79.9039 52.3124 79.866 52.3189 79.8279 52.3174C79.7883 52.3188 79.7489 52.3122 79.7119 52.2981C79.675 52.284 79.6412 52.2627 79.6126 52.2354C79.5682 52.1799 79.543 52.1116 79.5408 52.0406C79.5457 51.9457 79.5758 51.8539 79.6281 51.7746C79.6804 51.6952 79.7529 51.6313 79.8381 51.5895C80.0515 51.4719 80.2917 51.4118 80.5353 51.4152C81.2804 51.4152 81.6529 51.692 81.6529 52.2456ZM80.3918 53.1991C80.1457 53.2914 80.0329 53.4349 80.0329 53.6297C80.034 53.741 80.0781 53.8476 80.156 53.9271C80.2096 53.9722 80.2717 54.0063 80.3385 54.0274C80.4054 54.0485 80.4757 54.0563 80.5456 54.0501C80.6588 54.0526 80.7711 54.0278 80.8728 53.9778C80.9745 53.9278 81.0627 53.8542 81.13 53.763V52.9326L80.3918 53.1991Z" fill="black"/>
<path d="M83.3436 53.7629C83.3436 53.9679 83.3437 54.091 83.4667 54.1525C83.6429 54.2203 83.832 54.2483 84.0203 54.2345V54.3575C83.8125 54.4295 83.5944 54.4676 83.3744 54.4703C83.2272 54.4816 83.081 54.4378 82.9643 54.3473C82.9102 54.2822 82.8696 54.2069 82.8449 54.1259C82.8203 54.045 82.8121 53.9599 82.8208 53.8757V51.7226H82.4722V51.5995L82.8208 51.4765L83.2104 50.8818H83.3436V51.4765H83.9896V51.7226H83.3436V53.7629Z" fill="black"/>
<path d="M85.2607 53.8238C85.2536 53.9023 85.2536 53.9812 85.2607 54.0597C85.2738 54.114 85.3067 54.1615 85.3529 54.193C85.4243 54.2469 85.5098 54.2789 85.599 54.2852V54.4082H84.3789V54.2852C84.4351 54.2851 84.4905 54.2732 84.5418 54.2502C84.593 54.2272 84.6388 54.1937 84.6762 54.1519C84.7008 54.0439 84.7008 53.9318 84.6762 53.8238V52.2552C84.6827 52.211 84.6827 52.1661 84.6762 52.1219C84.6833 52.0812 84.6833 52.0395 84.6762 51.9988C84.649 51.9548 84.6099 51.9192 84.5635 51.8963L84.3687 51.8348V51.7117L85.2401 51.4144L85.2607 53.8238ZM84.7275 50.5942C84.7582 50.5598 84.7963 50.5326 84.8388 50.5149C84.8814 50.4971 84.9275 50.4892 84.9736 50.4916C85.0433 50.4897 85.1119 50.5088 85.1707 50.5463C85.2295 50.5839 85.2756 50.6381 85.3032 50.7022C85.3308 50.7662 85.3386 50.837 85.3255 50.9055C85.3124 50.974 85.2791 51.037 85.2299 51.0863C85.1588 51.1478 85.0675 51.1807 84.9736 51.1786C84.9284 51.181 84.8832 51.174 84.8409 51.1582C84.7986 51.1423 84.7599 51.1178 84.7275 51.0863C84.6624 51.021 84.6258 50.9325 84.6258 50.8403C84.6258 50.748 84.6624 50.6596 84.7275 50.5942Z" fill="black"/>
<path d="M87.3851 53.3733C87.2871 53.2656 87.1686 53.1785 87.0365 53.117L86.6161 52.9325C86.4801 52.8639 86.361 52.7658 86.2676 52.6454C86.1627 52.5111 86.1082 52.3441 86.1138 52.1738C86.1194 51.972 86.204 51.7805 86.3496 51.6406C86.4548 51.5546 86.576 51.4904 86.7063 51.4517C86.8365 51.413 86.9732 51.4005 87.1083 51.4151C87.3754 51.4152 87.6412 51.4532 87.8977 51.5278V52.102H87.7747C87.733 51.951 87.643 51.8177 87.5184 51.7227C87.4018 51.6398 87.2616 51.5966 87.1185 51.5996C86.9777 51.5895 86.8384 51.6335 86.7289 51.7227C86.6464 51.8116 86.6022 51.9295 86.6059 52.0507C86.6034 52.1142 86.6149 52.1775 86.6398 52.236C86.6646 52.2945 86.702 52.3468 86.7494 52.3891C86.856 52.4807 86.9773 52.5534 87.1083 52.6044L87.5184 52.7992C87.6648 52.8704 87.7889 52.9803 87.8772 53.117C87.9822 53.2703 88.0328 53.4545 88.0208 53.6399C88.0196 53.7491 87.9953 53.8567 87.9493 53.9557C87.9033 54.0547 87.8368 54.1428 87.7542 54.2141C87.5253 54.4044 87.2305 54.4965 86.934 54.4704C86.6626 54.4685 86.3942 54.4128 86.1445 54.3064L86.0933 53.7117H86.2163C86.2579 53.8778 86.3546 54.025 86.4904 54.1292C86.6263 54.2335 86.7935 54.2887 86.9647 54.2858C87.0409 54.2916 87.1174 54.2819 87.1897 54.2572C87.2619 54.2326 87.3284 54.1934 87.3851 54.1423C87.4351 54.095 87.4747 54.0377 87.5012 53.9741C87.5277 53.9105 87.5405 53.8421 87.5389 53.7732C87.5422 53.6249 87.487 53.4812 87.3851 53.3733Z" fill="black"/>
<path d="M88.852 51.1789C88.8372 51.0343 88.8534 50.8883 88.8993 50.7504C88.9453 50.6125 89.02 50.486 89.1186 50.3792C89.1982 50.2968 89.2939 50.2315 89.3997 50.1874C89.5055 50.1434 89.6192 50.1214 89.7338 50.1229C89.8662 50.1159 89.9969 50.1558 90.1029 50.2356C90.148 50.2685 90.1847 50.3117 90.2096 50.3617C90.2346 50.4116 90.2472 50.4669 90.2464 50.5227C90.2497 50.5616 90.245 50.6007 90.2327 50.6377C90.2204 50.6748 90.2006 50.7089 90.1746 50.738C90.1188 50.7898 90.0457 50.819 89.9696 50.82C89.8866 50.8232 89.8056 50.7938 89.744 50.738C89.7188 50.7164 89.6985 50.6897 89.6844 50.6596C89.6702 50.6296 89.6626 50.5969 89.662 50.5637C89.6623 50.5149 89.6746 50.467 89.6979 50.424C89.7211 50.3811 89.7546 50.3446 89.7953 50.3177H89.662C89.6144 50.3184 89.5675 50.3299 89.525 50.3512C89.4824 50.3725 89.4451 50.4031 89.4159 50.4407C89.3333 50.5412 89.2928 50.6699 89.3031 50.7996C89.3061 51.0337 89.3301 51.267 89.3749 51.4968H90.0208V51.7428H89.3749V53.8446C89.3681 53.906 89.3681 53.9678 89.3749 54.0292C89.3785 54.0746 89.3965 54.1176 89.4262 54.1522C89.4393 54.1782 89.4581 54.2008 89.4812 54.2186C89.5042 54.2363 89.531 54.2487 89.5594 54.2548C89.648 54.2644 89.7374 54.2644 89.826 54.2548V54.3778H88.4932V54.2548C88.5493 54.2547 88.6048 54.2427 88.656 54.2198C88.7073 54.1968 88.7531 54.1633 88.7905 54.1215C88.8323 54.0174 88.8498 53.9052 88.8418 53.7934V51.6916H88.4932V51.5685L88.8418 51.4454L88.852 51.1789Z" fill="black"/>
<path d="M93.1257 51.6001C93.0457 51.6514 92.9732 51.7135 92.9104 51.7847C92.8521 51.8748 92.804 51.9711 92.7668 52.0718L92.0901 53.8763C91.9734 54.2057 91.8364 54.5275 91.68 54.84C91.5849 55.0488 91.4644 55.2451 91.3212 55.4244C91.233 55.5325 91.1251 55.6229 91.0033 55.691C90.9088 55.7413 90.8028 55.766 90.6958 55.7627C90.5919 55.7685 90.4897 55.7357 90.4087 55.6705C90.3769 55.6421 90.3514 55.6073 90.3337 55.5685C90.3161 55.5297 90.3067 55.4876 90.3062 55.4449C90.3062 55.4046 90.3143 55.3648 90.3302 55.3278C90.346 55.2908 90.3693 55.2573 90.3984 55.2296C90.4511 55.1793 90.5204 55.1502 90.5932 55.1476C90.6596 55.149 90.7239 55.1704 90.7778 55.2091C90.8057 55.233 90.8276 55.263 90.8418 55.2968C90.8561 55.3306 90.8622 55.3673 90.8598 55.4039C90.869 55.4444 90.869 55.4865 90.8598 55.5269C91.0751 55.5269 91.3212 55.1476 91.6288 54.5017L90.6035 52.0615C90.5687 51.963 90.5204 51.8698 90.4599 51.7847C90.4033 51.7237 90.3376 51.6719 90.2651 51.6309V51.5078H91.3519V51.6309C91.2836 51.651 91.2206 51.686 91.1674 51.7334C91.1504 51.7467 91.1368 51.7638 91.1279 51.7835C91.1189 51.8031 91.1149 51.8246 91.1161 51.8462C91.1158 51.9145 91.1335 51.9817 91.1674 52.041L91.8748 53.8352L92.4695 52.0205C92.4767 51.966 92.4767 51.9109 92.4695 51.8564C92.4704 51.8324 92.4652 51.8086 92.4544 51.7871C92.4437 51.7656 92.4277 51.7471 92.408 51.7334C92.3269 51.6891 92.2409 51.6547 92.1517 51.6309V51.5078H93.1052L93.1257 51.6001Z" fill="black"/>
<path d="M94.327 53.8242C94.3185 53.9025 94.3185 53.9817 94.327 54.06C94.3294 54.0871 94.338 54.1132 94.3522 54.1364C94.3665 54.1595 94.386 54.179 94.4091 54.1933C94.4804 54.2473 94.5659 54.2793 94.6551 54.2856V54.4086H93.4453V54.2856C93.5991 54.2856 93.7016 54.2138 93.7324 54.1523C93.7621 54.0449 93.7621 53.9315 93.7324 53.8242V52.1222C93.7324 52.1222 93.7324 52.0505 93.7324 51.9992C93.7324 51.9479 93.6811 51.9274 93.6298 51.8966L93.4351 51.8351V51.7121L94.2963 51.4148L94.327 53.8242ZM93.8042 50.5946C93.8357 50.5591 93.8742 50.5304 93.9172 50.5103C93.9603 50.4902 94.007 50.4791 94.0545 50.4777C94.1019 50.4763 94.1492 50.4846 94.1934 50.5022C94.2375 50.5197 94.2776 50.546 94.3112 50.5796C94.3448 50.6132 94.3712 50.6533 94.3887 50.6975C94.4062 50.7416 94.4146 50.7889 94.4132 50.8364C94.4118 50.8839 94.4007 50.9306 94.3806 50.9736C94.3605 51.0167 94.3318 51.0551 94.2963 51.0867C94.2276 51.1452 94.1404 51.1773 94.0502 51.1773C93.96 51.1773 93.8728 51.1452 93.8042 51.0867C93.739 51.0214 93.7025 50.9329 93.7025 50.8406C93.7025 50.7484 93.739 50.6599 93.8042 50.5946Z" fill="black"/>
<path d="M95.9657 51.9068C96.1026 51.7541 96.2615 51.6228 96.4373 51.5172C96.581 51.4476 96.739 51.4125 96.8987 51.4147C97.1114 51.4013 97.321 51.4711 97.4831 51.6095C97.56 51.6849 97.6192 51.7765 97.6564 51.8776C97.6937 51.9786 97.708 52.0867 97.6984 52.1939V53.8241C97.6914 53.9026 97.6914 53.9815 97.6984 54.06C97.7116 54.1143 97.7445 54.1618 97.7907 54.1933C97.8621 54.2472 97.9475 54.2792 98.0368 54.2855V54.4085H96.8782V54.2855C96.9267 54.2835 96.9741 54.2705 97.0167 54.2474C97.0594 54.2243 97.0962 54.1917 97.1243 54.1522C97.1419 54.0435 97.1419 53.9328 97.1243 53.8241V52.2862C97.1332 52.224 97.1273 52.1605 97.1071 52.101C97.0869 52.0415 97.0529 51.9876 97.008 51.9436C96.9631 51.8997 96.9084 51.8669 96.8484 51.8481C96.7885 51.8292 96.7249 51.8248 96.6629 51.8351C96.3928 51.8401 96.131 51.9298 95.9145 52.0914V53.8241C95.9145 53.9369 95.9145 54.0189 95.9145 54.06C95.9276 54.1143 95.9605 54.1618 96.0067 54.1933C96.0781 54.2472 96.1636 54.2792 96.2528 54.2855V54.4085H95.043V54.2855C95.0974 54.284 95.1509 54.2714 95.2003 54.2484C95.2496 54.2255 95.2938 54.1928 95.33 54.1522C95.3546 54.0442 95.3546 53.9321 95.33 53.8241V52.2555C95.3365 52.2113 95.3365 52.1664 95.33 52.1222C95.3371 52.0815 95.3371 52.0398 95.33 51.9991C95.3069 51.9554 95.2712 51.9197 95.2275 51.8966L95.0327 51.8351V51.712L95.8939 51.4147L95.9657 51.9068Z" fill="black"/>
<path d="M100.282 54.1218C100.513 54.1662 100.732 54.2568 100.927 54.3884C100.995 54.4487 101.048 54.5231 101.084 54.6064C101.119 54.6897 101.136 54.7798 101.133 54.8702C101.125 54.996 101.086 55.1179 101.02 55.2252C100.953 55.3325 100.862 55.4218 100.753 55.4854C100.448 55.6808 100.09 55.7775 99.7279 55.7622C99.3749 55.7897 99.0209 55.7225 98.7026 55.5674C98.6077 55.5238 98.5268 55.4548 98.4689 55.3679C98.4109 55.281 98.3783 55.1797 98.3745 55.0753C98.3745 54.7882 98.5898 54.5627 99.0204 54.3884C98.9363 54.3698 98.8611 54.3231 98.807 54.256C98.753 54.1889 98.7234 54.1054 98.7231 54.0192C98.7246 53.9148 98.7606 53.8139 98.8256 53.7322C98.906 53.6206 99.0113 53.5293 99.1332 53.4656C98.9519 53.3849 98.801 53.2484 98.7026 53.076C98.5979 52.8918 98.5448 52.6829 98.5488 52.4711C98.5439 52.331 98.5677 52.1914 98.6189 52.0609C98.67 51.9304 98.7474 51.8118 98.8461 51.7124C98.9572 51.6091 99.088 51.5294 99.2308 51.4783C99.3736 51.4272 99.5253 51.4057 99.6766 51.4151C99.8162 51.3981 99.9574 51.3981 100.097 51.4151H101.009V51.7226H100.548C100.644 51.8217 100.719 51.939 100.768 52.0676C100.817 52.1962 100.84 52.3334 100.835 52.4711C100.846 52.7696 100.739 53.0606 100.538 53.2811C100.429 53.3878 100.298 53.4703 100.155 53.5233C100.012 53.5762 99.8596 53.5986 99.7074 53.5886C99.5749 53.5908 99.4431 53.57 99.3178 53.5271C99.282 53.552 99.2517 53.5839 99.2288 53.6209C99.2058 53.658 99.1908 53.6994 99.1845 53.7425C99.1845 53.845 99.246 53.9065 99.3588 53.927L100.282 54.1218ZM100.353 55.3726C100.425 55.3412 100.487 55.2897 100.531 55.2243C100.574 55.1588 100.598 55.0822 100.599 55.0035C100.604 54.9588 100.596 54.9137 100.578 54.8724C100.56 54.8312 100.532 54.7952 100.497 54.7677C100.394 54.6946 100.274 54.6487 100.148 54.6345L99.123 54.4294C99.0234 54.4839 98.9387 54.5619 98.8762 54.6566C98.8137 54.7513 98.7752 54.8598 98.7641 54.9727C98.7641 55.3418 99.0512 55.5162 99.6254 55.5162C99.8902 55.5451 100.158 55.4951 100.394 55.3726H100.353ZM99.1845 51.8149C99.0807 51.9953 99.0309 52.2017 99.0409 52.4096C99.0409 53.0657 99.2562 53.4348 99.6869 53.4348C100.117 53.4348 100.282 53.1375 100.282 52.5531C100.282 51.9687 100.066 51.6304 99.6356 51.6304C99.5511 51.6222 99.4658 51.6347 99.3872 51.6669C99.3086 51.699 99.239 51.7499 99.1845 51.8149Z" fill="black"/>
<path d="M105.449 51.6001C105.369 51.6513 105.296 51.7134 105.234 51.7846C105.175 51.8748 105.127 51.9711 105.09 52.0717L104.413 53.8762C104.27 54.2659 104.126 54.5836 104.003 54.8399C103.909 55.0515 103.785 55.2483 103.634 55.4244C103.55 55.5329 103.446 55.6235 103.327 55.6909C103.228 55.7412 103.119 55.7659 103.009 55.7627C102.908 55.7669 102.81 55.7341 102.732 55.6705C102.698 55.6434 102.672 55.6089 102.654 55.5698C102.636 55.5306 102.628 55.4879 102.629 55.4449C102.629 55.4046 102.638 55.3648 102.653 55.3277C102.669 55.2907 102.693 55.2573 102.722 55.2296C102.772 55.1842 102.838 55.1591 102.906 55.1591C102.974 55.1591 103.04 55.1842 103.091 55.2296C103.121 55.2515 103.144 55.2813 103.159 55.3156C103.173 55.3499 103.178 55.3875 103.173 55.4244C103.183 55.4648 103.183 55.507 103.173 55.5474C103.378 55.5474 103.634 55.168 103.942 54.5221L102.916 52.082C102.882 51.9835 102.833 51.8903 102.773 51.8052C102.715 51.7418 102.645 51.6897 102.568 51.6513V51.5283H103.665V51.6513C103.597 51.6715 103.534 51.7065 103.48 51.7539C103.462 51.7666 103.447 51.7835 103.436 51.803C103.426 51.8226 103.42 51.8444 103.419 51.8667C103.423 51.9357 103.444 52.0026 103.48 52.0615L104.188 53.8557L104.772 52.041C104.783 51.9868 104.783 51.9311 104.772 51.8769C104.773 51.8529 104.768 51.829 104.757 51.8075C104.746 51.786 104.73 51.7676 104.711 51.7539L104.454 51.6513V51.5283H105.408L105.449 51.6001Z" fill="black"/>
<path d="M106.074 51.8251C106.2 51.6796 106.359 51.5663 106.537 51.495C106.715 51.4236 106.908 51.3962 107.1 51.4149C107.29 51.4012 107.48 51.43 107.657 51.4992C107.835 51.5684 107.994 51.6762 108.125 51.8148C108.343 52.1485 108.46 52.5386 108.46 52.9374C108.46 53.3362 108.343 53.7264 108.125 54.0602C108 54.2063 107.841 54.3199 107.663 54.3914C107.484 54.4628 107.291 54.4899 107.1 54.4702C106.91 54.4839 106.719 54.4551 106.542 54.3859C106.365 54.3168 106.205 54.209 106.074 54.0704C105.856 53.7366 105.74 53.3465 105.74 52.9477C105.74 52.5489 105.856 52.1588 106.074 51.8251ZM107.1 54.2857C107.211 54.2863 107.32 54.2583 107.417 54.2044C107.514 54.1505 107.595 54.0726 107.653 53.9781C107.82 53.6635 107.891 53.3072 107.858 52.9528C107.858 52.0096 107.592 51.5482 107.048 51.5482C106.936 51.5468 106.825 51.5744 106.726 51.6282C106.627 51.6821 106.544 51.7605 106.485 51.8558C106.328 52.1554 106.257 52.4924 106.279 52.8298C106.29 53.8243 106.546 54.2857 107.11 54.2857H107.1Z" fill="black"/>
<path d="M110.965 53.9787C110.855 54.122 110.716 54.2401 110.557 54.325C110.398 54.4099 110.222 54.4596 110.042 54.4708C109.826 54.4859 109.613 54.416 109.448 54.276C109.371 54.2006 109.312 54.1091 109.274 54.008C109.237 53.907 109.223 53.7989 109.232 53.6916V52.123C109.238 52.0822 109.238 52.0407 109.232 52C109.232 52 109.181 51.9281 109.13 51.8974L108.935 51.8359V51.7128L109.807 51.4155V53.5891C109.798 53.6504 109.804 53.7127 109.823 53.7713C109.843 53.83 109.876 53.8832 109.92 53.9269C109.964 53.9706 110.017 54.0036 110.075 54.0233C110.134 54.0429 110.196 54.0488 110.258 54.0402C110.528 54.0366 110.79 53.9468 111.006 53.7839V52.0409V51.9282C110.986 51.8821 110.95 51.8454 110.904 51.8257C110.84 51.7915 110.77 51.7705 110.699 51.7641V51.6411L111.57 51.4053V53.7531C111.564 53.8145 111.564 53.8764 111.57 53.9377C111.563 53.9784 111.563 54.0201 111.57 54.0608C111.59 54.1069 111.626 54.1436 111.673 54.1633C111.741 54.1728 111.81 54.1728 111.878 54.1633V54.2863L111.006 54.4093L110.965 53.9787Z" fill="black"/>
<path d="M113.139 52.0302C113.243 51.8618 113.367 51.7069 113.508 51.5689C113.61 51.4702 113.746 51.4149 113.888 51.4151C113.98 51.4136 114.07 51.4424 114.144 51.4971C114.177 51.5306 114.204 51.5706 114.222 51.6147C114.239 51.6588 114.248 51.706 114.246 51.7535C114.248 51.7939 114.24 51.8342 114.224 51.8714C114.208 51.9086 114.184 51.9418 114.154 51.9687C114.126 52.0003 114.091 52.0251 114.052 52.0411C114.013 52.0571 113.971 52.0639 113.929 52.061C113.851 52.0626 113.775 52.0372 113.713 51.9892C113.683 51.9664 113.66 51.9369 113.644 51.903C113.627 51.8691 113.62 51.8319 113.621 51.7944C113.42 51.8796 113.251 52.0269 113.139 52.2148V53.8245C113.132 53.8858 113.132 53.9477 113.139 54.009C113.13 54.0495 113.13 54.0916 113.139 54.1321C113.173 54.1828 113.224 54.2193 113.283 54.2346C113.371 54.2443 113.461 54.2443 113.549 54.2346V54.3576H112.216V54.2346C112.38 54.2346 112.473 54.1628 112.503 54.1013C112.555 54.0003 112.577 53.8862 112.565 53.7732V52.2558C112.565 52.1943 112.565 52.1533 112.565 52.1225C112.572 52.0818 112.572 52.0402 112.565 51.9995C112.539 51.9581 112.504 51.923 112.462 51.8969L112.257 51.8354V51.7124L113.129 51.4151L113.139 52.0302Z" fill="black"/>
<path d="M118.142 52.1951C118.115 52.2259 118.082 52.2502 118.045 52.2662C118.007 52.2821 117.967 52.2894 117.926 52.2874C117.887 52.2887 117.847 52.2822 117.81 52.2681C117.774 52.254 117.74 52.2327 117.711 52.2054C117.682 52.1796 117.659 52.148 117.643 52.1127C117.627 52.0773 117.619 52.0391 117.619 52.0003C117.621 51.9476 117.634 51.8958 117.657 51.8482C117.68 51.8006 117.712 51.7582 117.752 51.7235C117.624 51.6333 117.468 51.5899 117.311 51.6005C117.189 51.5955 117.067 51.6221 116.957 51.6777C116.848 51.7334 116.754 51.8162 116.686 51.9183C116.525 52.1832 116.446 52.4902 116.46 52.8C116.46 53.6202 116.799 54.0406 117.486 54.0406C117.784 54.0528 118.076 53.9459 118.296 53.7433V53.8663C118.209 54.0613 118.063 54.2244 117.88 54.3328C117.696 54.4412 117.483 54.4896 117.27 54.4712C117.08 54.4864 116.889 54.4583 116.712 54.3891C116.534 54.3198 116.375 54.2111 116.245 54.0713C115.995 53.7699 115.867 53.3859 115.886 52.9948C115.866 52.5748 116.01 52.1634 116.286 51.8465C116.415 51.7046 116.574 51.5926 116.751 51.5182C116.928 51.4439 117.119 51.4089 117.311 51.4159C117.533 51.4118 117.752 51.4648 117.947 51.5697C118.025 51.6089 118.092 51.6687 118.139 51.7428C118.186 51.8169 118.212 51.9024 118.213 51.9901C118.216 52.065 118.191 52.1383 118.142 52.1951Z" fill="black"/>
<path d="M119.547 52.0298C119.636 51.8528 119.746 51.6875 119.875 51.5377C119.977 51.4389 120.113 51.3837 120.255 51.3838C120.347 51.3824 120.437 51.4112 120.511 51.4659C120.545 51.4994 120.571 51.5394 120.589 51.5835C120.606 51.6275 120.615 51.6747 120.614 51.7222C120.615 51.7627 120.607 51.8029 120.591 51.8401C120.575 51.8773 120.551 51.9106 120.521 51.9375C120.493 51.9691 120.458 51.9938 120.419 52.0098C120.38 52.0258 120.338 52.0326 120.296 52.0298C120.218 52.0314 120.142 52.006 120.08 51.958C120.051 51.9352 120.027 51.9056 120.011 51.8718C119.995 51.8379 119.987 51.8007 119.988 51.7632C119.787 51.8484 119.618 51.9957 119.506 52.1836V53.7933C119.499 53.8546 119.499 53.9165 119.506 53.9778C119.497 54.0184 119.497 54.0603 119.506 54.1009C119.54 54.1516 119.591 54.1881 119.65 54.2034C119.738 54.213 119.828 54.213 119.916 54.2034V54.3264H118.583V54.2034C118.748 54.2034 118.84 54.1316 118.871 54.0701C118.923 53.969 118.944 53.8551 118.932 53.742V52.2554C118.932 52.1939 118.932 52.1528 118.932 52.1221C118.939 52.0814 118.939 52.0398 118.932 51.999C118.906 51.9577 118.871 51.9226 118.83 51.8965L118.625 51.835V51.7119L119.496 51.4146L119.547 52.0298Z" fill="black"/>
<path d="M123.137 52.2456V53.6503C123.117 53.7621 123.117 53.8768 123.137 53.9886C123.16 54.0241 123.192 54.0525 123.23 54.0707C123.268 54.0888 123.311 54.0959 123.353 54.0911C123.468 54.0897 123.58 54.05 123.67 53.9784V54.1014C123.611 54.2129 123.522 54.3062 123.414 54.3712C123.306 54.4362 123.182 54.4705 123.055 54.4705C122.737 54.4705 122.584 54.3064 122.573 53.9681C122.486 54.1153 122.364 54.2384 122.217 54.3262C122.07 54.4139 121.904 54.4635 121.733 54.4705C121.52 54.4839 121.31 54.4141 121.148 54.2757C121.075 54.2189 121.017 54.1457 120.977 54.0619C120.938 53.9781 120.919 53.8863 120.923 53.7938C120.917 53.697 120.932 53.6 120.967 53.5097C121.003 53.4194 121.058 53.3379 121.128 53.2709C121.328 53.1287 121.554 53.0276 121.794 52.9736L122.573 52.7583V52.2764C122.578 52.1046 122.528 51.9359 122.43 51.7945C122.373 51.7266 122.3 51.6734 122.218 51.6395C122.136 51.6056 122.047 51.592 121.958 51.5997C121.791 51.5937 121.626 51.6403 121.487 51.733C121.559 51.8151 121.599 51.9208 121.599 52.0303C121.603 52.0685 121.597 52.107 121.583 52.1426C121.568 52.1782 121.546 52.21 121.517 52.2354C121.49 52.2619 121.458 52.2828 121.423 52.2969C121.388 52.311 121.35 52.318 121.312 52.3174C121.274 52.3199 121.236 52.3138 121.2 52.2996C121.165 52.2855 121.133 52.2635 121.107 52.2354C121.055 52.1839 121.026 52.1138 121.025 52.0406C121.03 51.9457 121.06 51.8539 121.112 51.7746C121.165 51.6952 121.237 51.6313 121.322 51.5895C121.536 51.4719 121.776 51.4118 122.02 51.4152C122.765 51.4152 123.137 51.692 123.137 52.2456ZM121.876 53.1991C121.64 53.2914 121.517 53.4349 121.517 53.6297C121.518 53.741 121.562 53.8476 121.64 53.9271C121.694 53.9722 121.756 54.0063 121.823 54.0274C121.89 54.0485 121.96 54.0563 122.03 54.0501C122.143 54.0526 122.255 54.0278 122.357 53.9778C122.459 53.9278 122.547 53.8542 122.614 53.763V52.9326L121.876 53.1991Z" fill="black"/>
<path d="M126.62 51.5996C126.541 51.6477 126.471 51.7103 126.415 51.7841C126.349 51.8694 126.3 51.967 126.272 52.0712L125.38 54.4396H125.062L124.088 52.0097C124.054 51.9191 124.009 51.833 123.955 51.7534C123.896 51.6901 123.827 51.6379 123.75 51.5996V51.4766H124.847V51.5996C124.672 51.6611 124.59 51.7226 124.59 51.8047C124.602 51.8787 124.622 51.951 124.652 52.0199L125.359 53.8347L125.954 51.9995C125.963 51.9417 125.963 51.8829 125.954 51.8252C125.955 51.8012 125.95 51.7773 125.939 51.7558C125.928 51.7343 125.912 51.7158 125.892 51.7021L125.636 51.5996V51.4766H126.579L126.62 51.5996Z" fill="black"/>
<path d="M127.852 53.8244C127.845 53.9029 127.845 53.9819 127.852 54.0603C127.861 54.1138 127.89 54.1618 127.934 54.1936C128.008 54.2494 128.098 54.2816 128.19 54.2858V54.4089H126.97V54.2858C127.124 54.2858 127.227 54.2141 127.257 54.1525C127.309 54.0515 127.331 53.9375 127.319 53.8244V52.2558C127.319 52.1943 127.319 52.1533 127.319 52.1225C127.321 52.0815 127.321 52.0405 127.319 51.9995C127.292 51.9554 127.252 51.9199 127.206 51.8969L127.011 51.8354V51.7124L127.883 51.4151L127.852 53.8244ZM127.319 50.5949C127.384 50.5297 127.473 50.4932 127.565 50.4932C127.657 50.4932 127.746 50.5297 127.811 50.5949C127.846 50.6256 127.874 50.6635 127.893 50.7059C127.912 50.7484 127.922 50.7944 127.922 50.8409C127.922 50.8875 127.912 50.9335 127.893 50.9759C127.874 51.0183 127.846 51.0562 127.811 51.087C127.742 51.1455 127.655 51.1776 127.565 51.1776C127.475 51.1776 127.387 51.1455 127.319 51.087C127.254 51.0216 127.217 50.9332 127.217 50.8409C127.217 50.7487 127.254 50.6602 127.319 50.5949Z" fill="black"/>
<path d="M129.483 51.9068C129.622 51.7569 129.781 51.6259 129.954 51.5172C130.098 51.4476 130.256 51.4125 130.416 51.4147C130.629 51.4013 130.838 51.4711 131 51.6095C131.077 51.6849 131.136 51.7765 131.174 51.8776C131.211 51.9786 131.225 52.0867 131.216 52.1939V53.8241C131.209 53.9026 131.209 53.9815 131.216 54.06C131.229 54.1143 131.262 54.1618 131.308 54.1933C131.379 54.2472 131.465 54.2792 131.554 54.2855V54.4085H130.395V54.2855C130.444 54.2835 130.491 54.2705 130.534 54.2474C130.576 54.2243 130.613 54.1917 130.641 54.1522C130.659 54.0435 130.659 53.9328 130.641 53.8241V52.2862C130.65 52.224 130.644 52.1605 130.624 52.101C130.604 52.0415 130.57 51.9876 130.525 51.9436C130.48 51.8997 130.425 51.8669 130.366 51.8481C130.306 51.8292 130.242 51.8248 130.18 51.8351C129.91 51.8401 129.648 51.9298 129.432 52.0914V53.8241C129.432 53.9369 129.432 54.0189 129.432 54.06C129.445 54.1143 129.478 54.1618 129.524 54.1933C129.595 54.2472 129.681 54.2792 129.77 54.2855V54.4085H128.56V54.2855C128.714 54.2855 128.816 54.2137 128.847 54.1522C128.894 54.0496 128.912 53.9361 128.898 53.8241V52.1222V51.9991C128.875 51.9554 128.84 51.9197 128.796 51.8966L128.601 51.8351V51.712L129.462 51.4147L129.483 51.9068Z" fill="black"/>
<path d="M133.799 54.1218C134.03 54.1662 134.249 54.2568 134.445 54.3884C134.512 54.4487 134.565 54.5231 134.601 54.6064C134.636 54.6897 134.653 54.7798 134.65 54.8702C134.642 54.996 134.603 55.1179 134.537 55.2252C134.471 55.3325 134.379 55.4218 134.27 55.4854C133.965 55.6808 133.607 55.7775 133.245 55.7622C132.892 55.7897 132.538 55.7225 132.22 55.5674C132.125 55.5243 132.045 55.4551 131.989 55.3679C131.932 55.2807 131.902 55.1791 131.902 55.0753C131.902 54.7882 132.107 54.5627 132.538 54.3884C132.454 54.3681 132.38 54.321 132.326 54.2542C132.273 54.1875 132.242 54.1049 132.24 54.0192C132.242 53.9148 132.278 53.8139 132.343 53.7322C132.392 53.7312 132.44 53.7194 132.484 53.6978C132.528 53.6763 132.567 53.6453 132.598 53.6072C132.629 53.5691 132.651 53.5247 132.663 53.4771C132.676 53.4295 132.677 53.3798 132.668 53.3316C132.659 53.2833 132.64 53.2376 132.611 53.1976C132.583 53.1576 132.546 53.1243 132.503 53.1C132.46 53.0757 132.413 53.0609 132.364 53.0568C132.315 53.0527 132.266 53.0592 132.22 53.076C132.115 52.8918 132.062 52.6829 132.066 52.4711C132.061 52.331 132.085 52.1914 132.136 52.0609C132.187 51.9304 132.264 51.8118 132.363 51.7124C132.474 51.6091 132.605 51.5294 132.748 51.4783C132.891 51.4272 133.042 51.4057 133.194 51.4151C133.333 51.3981 133.474 51.3981 133.614 51.4151H134.537V51.7226H134.065C134.161 51.8217 134.236 51.939 134.285 52.0676C134.334 52.1962 134.357 52.3334 134.352 52.4711C134.363 52.7696 134.257 53.0606 134.055 53.2811C133.946 53.3878 133.816 53.4703 133.672 53.5233C133.529 53.5762 133.377 53.5986 133.224 53.5886C133.092 53.5908 132.96 53.57 132.835 53.5271C132.799 53.552 132.769 53.5839 132.746 53.6209C132.723 53.658 132.708 53.6994 132.702 53.7425C132.702 53.845 132.763 53.9065 132.876 53.927L133.799 54.1218ZM133.87 55.3726C133.942 55.3412 134.004 55.2897 134.048 55.2243C134.091 55.1588 134.115 55.0822 134.116 55.0035C134.121 54.9588 134.113 54.9137 134.096 54.8724C134.078 54.8312 134.05 54.7952 134.014 54.7677C133.911 54.6946 133.791 54.6487 133.665 54.6345L132.64 54.4294C132.541 54.4837 132.458 54.5619 132.397 54.6568C132.336 54.7517 132.3 54.8603 132.291 54.9727C132.291 55.3418 132.579 55.5162 133.142 55.5162C133.394 55.5371 133.646 55.4873 133.87 55.3726ZM132.712 51.8149C132.601 51.9928 132.547 52.2003 132.558 52.4096C132.558 53.0657 132.773 53.4348 133.204 53.4348C133.635 53.4348 133.799 53.1375 133.799 52.5531C133.799 51.9687 133.583 51.6304 133.153 51.6304C133.07 51.6212 132.985 51.6332 132.908 51.6655C132.831 51.6978 132.764 51.7493 132.712 51.8149Z" fill="black"/>
<path d="M136.28 53.3733C136.179 53.268 136.061 53.1812 135.931 53.117L135.511 52.9325C135.374 52.8608 135.252 52.7634 135.152 52.6454C135.054 52.5079 135.004 52.3424 135.008 52.1738C135.014 51.972 135.099 51.7805 135.244 51.6406C135.349 51.5546 135.471 51.4904 135.601 51.4517C135.731 51.413 135.868 51.4005 136.003 51.4151C136.27 51.4159 136.536 51.4538 136.792 51.5278V52.102H136.669C136.628 51.951 136.537 51.8177 136.413 51.7227C136.296 51.6398 136.156 51.5966 136.013 51.5996C135.872 51.5895 135.733 51.6335 135.623 51.7227C135.541 51.8116 135.497 51.9295 135.5 52.0507C135.498 52.1142 135.509 52.1775 135.534 52.236C135.559 52.2945 135.597 52.3468 135.644 52.3891C135.749 52.4828 135.871 52.5558 136.003 52.6044L136.413 52.7992C136.559 52.8704 136.683 52.9803 136.772 53.117C136.877 53.2703 136.927 53.4545 136.915 53.6399C136.914 53.7491 136.89 53.8567 136.844 53.9557C136.798 54.0547 136.731 54.1428 136.649 54.2141C136.42 54.4044 136.125 54.4965 135.829 54.4704C135.557 54.4685 135.289 54.4128 135.039 54.3064L134.988 53.7117H135.111C135.152 53.8778 135.249 54.025 135.385 54.1292C135.521 54.2335 135.688 54.2887 135.859 54.2858C136.013 54.2952 136.164 54.2436 136.28 54.1423C136.33 54.095 136.369 54.0377 136.396 53.9741C136.422 53.9105 136.435 53.8421 136.433 53.7732C136.437 53.6249 136.382 53.4812 136.28 53.3733Z" fill="black"/>
<path d="M137.654 53.9477C137.68 53.9193 137.712 53.8965 137.747 53.8807C137.783 53.8648 137.821 53.8563 137.859 53.8555C137.898 53.8556 137.936 53.8639 137.972 53.8798C138.007 53.8957 138.039 53.9188 138.064 53.9477C138.116 54.0074 138.145 54.0839 138.145 54.163C138.145 54.2422 138.116 54.3187 138.064 54.3784C138.039 54.4072 138.007 54.4304 137.972 54.4463C137.936 54.4622 137.898 54.4704 137.859 54.4706C137.821 54.4698 137.783 54.4612 137.747 54.4454C137.712 54.4295 137.68 54.4068 137.654 54.3784C137.602 54.3187 137.574 54.2422 137.574 54.163C137.574 54.0839 137.602 54.0074 137.654 53.9477Z" fill="black"/>
<path d="M138.998 53.9478C139.023 53.9179 139.054 53.894 139.09 53.8781C139.125 53.8621 139.164 53.8544 139.203 53.8556C139.24 53.8559 139.277 53.8643 139.311 53.8802C139.344 53.8962 139.374 53.9192 139.398 53.9478C139.427 53.9756 139.45 54.009 139.466 54.046C139.482 54.083 139.49 54.1229 139.49 54.1632C139.49 54.2034 139.482 54.2433 139.466 54.2803C139.45 54.3173 139.427 54.3507 139.398 54.3785C139.374 54.4071 139.344 54.4301 139.311 54.4461C139.277 54.462 139.24 54.4704 139.203 54.4707C139.164 54.472 139.125 54.4643 139.09 54.4483C139.054 54.4323 139.023 54.4085 138.998 54.3785C138.969 54.3507 138.946 54.3173 138.93 54.2803C138.914 54.2433 138.906 54.2034 138.906 54.1632C138.906 54.1229 138.914 54.083 138.93 54.046C138.946 54.009 138.969 53.9756 138.998 53.9478Z" fill="black"/>
<path d="M140.381 53.9482C140.407 53.9196 140.438 53.8968 140.474 53.8811C140.509 53.8655 140.547 53.8574 140.586 53.8574C140.625 53.8574 140.663 53.8655 140.698 53.8811C140.733 53.8968 140.765 53.9196 140.791 53.9482C140.843 54.0079 140.871 54.0844 140.871 54.1636C140.871 54.2427 140.843 54.3192 140.791 54.3789C140.765 54.4075 140.733 54.4303 140.698 54.446C140.663 54.4616 140.625 54.4697 140.586 54.4697C140.547 54.4697 140.509 54.4616 140.474 54.446C140.438 54.4303 140.407 54.4075 140.381 54.3789C140.352 54.3511 140.328 54.3177 140.313 54.2807C140.297 54.2437 140.289 54.2038 140.289 54.1636C140.289 54.1233 140.297 54.0834 140.313 54.0464C140.328 54.0094 140.352 53.976 140.381 53.9482Z" fill="black"/>
</g>
<defs>
<clipPath id="clip0_958_76948">
<rect width="146.594" height="58" fill="white" transform="translate(0 0.458984)"/>
</clipPath>
</defs>
</svg>
