<svg xmlns="http://www.w3.org/2000/svg" width="196" height="104" fill="none" viewBox="0 0 196 104"><path fill="#fff" d="M0 0h196v104H0z"/><path fill="#006FDD" fill-rule="evenodd" d="m69.45 48.12-8.16-8.1c-2.284-2.322-6.037-2.322-8.376 0l-8.159 8.1c-2.339 2.322-2.339 6.048 0 8.317l8.159 8.1c2.339 2.322 6.092 2.322 8.376 0l8.16-8.1c2.338-2.269 2.338-5.995 0-8.317m-5.93 6.102h-4.242c-.218 0-.218 0-.218.216v4.213c0 .161-.054.216-.217.216h-3.481c-.163 0-.218-.054-.218-.216v-4.213c0-.216 0-.216-.217-.216h-4.243c-.163 0-.218-.054-.218-.216V50.55c0-.162.055-.216.163-.216h4.243c.218 0 .218 0 .218-.216v-4.212c0-.216 0-.216.217-.216h3.481c.163 0 .218.054.218.216v4.212c0 .216 0 .216.218.216h4.242c.218 0 .218 0 .218.216v3.456c.054.162 0 .216-.163.216m17.677-6.911c-.272.486-.707.864-1.251 1.134s-1.251.432-2.013.432h-1.36v3.294h-2.719v-9.72h4.08c.76 0 1.468.162 2.012.432s.979.648 1.25 1.134c.273.486.436 1.026.436 1.674-.054.594-.163 1.134-.435 1.62m-2.393-1.62c0-.702-.381-1.08-1.143-1.08h-1.087v2.106h1.087c.762.054 1.143-.324 1.143-1.026m10.824-.433c.544.594.761 1.404.761 2.43v4.537h-2.72v-4.159c0-.431-.108-.81-.326-1.026-.217-.27-.543-.378-.924-.378s-.707.108-.98.378c-.217.27-.326.595-.326 1.026v4.159h-2.72V42.018h2.72v3.564c.218-.324.544-.648.98-.864a3 3 0 0 1 1.414-.324c.87 0 1.577.27 2.12.864m1.904.973a3.4 3.4 0 0 1 1.197-1.404 3.07 3.07 0 0 1 1.686-.486c.544 0 .98.108 1.414.324.381.216.708.486.925.864v-1.08h2.72v7.722h-2.72v-1.08c-.218.378-.544.648-.925.864-.38.216-.87.324-1.36.324a3.07 3.07 0 0 1-1.686-.486 3.4 3.4 0 0 1-1.196-1.404 5 5 0 0 1-.436-2.106 4.2 4.2 0 0 1 .381-2.052m4.787.918a1.4 1.4 0 0 0-1.034-.432c-.38 0-.761.162-1.033.432s-.38.648-.38 1.188c0 .486.108.864.38 1.188.272.27.598.432 1.033.432.381 0 .762-.162 1.034-.432s.435-.702.435-1.188c-.054-.54-.163-.918-.435-1.188m8.159-2.376c.435-.27.925-.378 1.414-.378v2.862h-.761q-.898 0-1.306.324c-.272.216-.435.648-.435 1.188v3.402h-2.72v-7.722h2.72v1.35c.272-.432.653-.756 1.088-1.026m14.522.486q.816.891.816 2.43v4.536h-2.72v-4.158q0-.648-.326-.972c-.217-.216-.544-.324-.924-.324-.381 0-.708.108-.925.324q-.327.324-.327.972v4.158h-2.719v-4.158q0-.648-.327-.972c-.217-.216-.543-.324-.924-.324q-.571 0-.979.324-.327.324-.327.972v4.158h-2.719V44.45h2.719v1.026c.218-.324.544-.594.925-.81a2.6 2.6 0 0 1 1.305-.324c.599 0 1.088.108 1.524.378s.815.594 1.087 1.026c.272-.432.653-.756 1.088-1.026s.979-.378 1.523-.378c.925.054 1.686.324 2.23.918m6.201 1.456h-1.196v5.508h-2.72v-5.508h-.87v-2.268h.87v-.054c0-.972.272-1.782.87-2.268.599-.54 1.414-.81 2.557-.81h.489v2.322h-.326c-.272 0-.49.054-.653.216-.163.108-.217.324-.217.648h1.196zm.653-.485a3.4 3.4 0 0 1 1.196-1.404 3.07 3.07 0 0 1 1.686-.486c.544 0 .979.108 1.415.324.38.216.707.486.924.864v-1.08h2.72v7.722h-2.72v-1.08c-.217.378-.544.648-.924.864-.381.216-.871.324-1.36.324a3.07 3.07 0 0 1-1.686-.486 3.4 3.4 0 0 1-1.197-1.404c-.272-.594-.435-1.296-.435-2.106-.055-.756.054-1.458.381-2.052m4.732.918a1.4 1.4 0 0 0-1.034-.432c-.435 0-.761.162-1.033.432s-.381.648-.381 1.188c0 .486.109.864.381 1.188.272.27.598.432 1.033.432.381 0 .762-.162 1.034-.432s.435-.702.435-1.188c0-.54-.163-.918-.435-1.188m16.861-1.89q.816.891.816 2.43v4.536h-2.719v-4.158q0-.648-.326-.972c-.218-.216-.544-.324-.925-.324s-.707.108-.925.324q-.327.324-.326.972v4.158h-2.72v-4.158q0-.648-.326-.972c-.218-.216-.544-.324-.925-.324-.435 0-.707.108-.979.324q-.326.324-.326.972v4.158h-2.72V44.45h2.72v1.026c.217-.324.544-.594.925-.81q.57-.324 1.305-.324c.598 0 1.088.108 1.523.378s.816.594 1.088 1.026c.272-.432.652-.756 1.087-1.026.436-.27.98-.378 1.524-.378.924.054 1.686.324 2.229.918M80.926 59.245c-.272.486-.707.864-1.25 1.134-.545.27-1.252.432-2.013.432h-1.36v3.295h-2.72v-9.72h4.08c.761 0 1.468.161 2.012.431s.98.648 1.251 1.134a3.33 3.33 0 0 1 0 3.294m-2.338-1.62c0-.702-.381-1.08-1.143-1.08h-1.088v2.106h1.088c.762 0 1.143-.324 1.143-1.026m12.292-3.24v9.72h-2.72v-3.888h-3.318v3.889h-2.72v-9.72h2.72v3.671h3.318v-3.672zm7.397 8.155h-3.481l-.544 1.566H91.37l3.59-9.72h3.155l3.535 9.72h-2.883zm-.653-2.107-1.033-3.132-1.034 3.132zm9.574 3.673-1.958-3.565h-.272v3.565h-2.72v-9.72h4.297c.762 0 1.469.161 2.013.431s.979.648 1.251 1.134a3.3 3.3 0 0 1 .435 1.62c0 .648-.163 1.242-.544 1.728s-.925.864-1.632 1.08l2.23 3.78h-3.1zm-2.23-5.455h1.36c.38 0 .652-.108.816-.27s.272-.432.272-.756-.109-.54-.272-.756c-.164-.162-.49-.27-.816-.27h-1.36zm17.568-4.266v9.72h-2.72V58.76l-1.849 5.347h-2.285l-1.903-5.4v5.4h-2.72v-9.72h3.318l2.448 6.317 2.393-6.318zm7.398 8.155h-3.481l-.544 1.566h-2.883l3.59-9.72h3.154l3.536 9.72h-2.883zm-.708-2.107-1.033-3.132-1.033 3.132zm4.95-3.781a3.84 3.84 0 0 1 1.741-1.728c.761-.432 1.577-.648 2.556-.648q1.795 0 3.1.972c.816.648 1.36 1.512 1.632 2.646h-2.937c-.163-.378-.435-.648-.707-.864-.327-.216-.653-.27-1.088-.27-.653 0-1.142.216-1.523.648s-.544 1.026-.544 1.782.163 1.35.544 1.782.87.648 1.523.648c.435 0 .761-.107 1.088-.27.326-.215.544-.486.707-.864h2.937c-.217 1.135-.761 1.999-1.632 2.647q-1.224.972-3.1.972c-.979 0-1.795-.216-2.556-.648s-1.306-1.026-1.741-1.729a5.7 5.7 0 0 1-.598-2.592 4.43 4.43 0 0 1 .598-2.484m18.819-2.267-3.481 6.642v3.079h-2.719v-3.079l-3.427-6.642h3.1l1.741 3.726 1.686-3.726z" clip-rule="evenodd"/></svg>