<svg xmlns="http://www.w3.org/2000/svg" width="40" height="40" fill="none" viewBox="0 0 40 40"><path stroke="#9CA3AF" stroke-linejoin="round" stroke-width="1.5" d="M16.25 5H9.583C8.42 5 7.84 5 7.366 5.144a3.33 3.33 0 0 0-2.222 2.222C5 7.839 5 8.42 5 9.583s0 1.745.144 2.218a3.33 3.33 0 0 0 2.222 2.222c.473.144 1.054.144 2.217.144h6.667c1.163 0 1.744 0 2.218-.144a3.33 3.33 0 0 0 2.222-2.222c.143-.473.143-1.055.143-2.218s0-1.744-.143-2.217a3.33 3.33 0 0 0-2.222-2.222C17.994 5 17.413 5 16.25 5ZM35 16.25V9.583c0-1.163 0-1.744-.143-2.217a3.33 3.33 0 0 0-2.222-2.222C32.162 5 31.58 5 30.417 5s-1.744 0-2.217.144a3.33 3.33 0 0 0-2.222 2.222c-.144.473-.144 1.054-.144 2.217v6.667c0 1.163 0 1.744.143 2.218A3.33 3.33 0 0 0 28.2 20.69c.473.143 1.054.143 2.217.143s1.745 0 2.218-.143a3.33 3.33 0 0 0 2.222-2.222c.144-.474.144-1.055.144-2.218Zm-6.8 18.607c.473.143 1.054.143 2.217.143s1.745 0 2.218-.144a3.33 3.33 0 0 0 2.222-2.222c.144-.473.144-1.054.144-2.217s0-1.745-.144-2.218a3.33 3.33 0 0 0-2.222-2.222c-.473-.144-1.055-.144-2.218-.144s-1.744 0-2.217.144a3.33 3.33 0 0 0-2.222 2.222c-.144.473-.144 1.055-.144 2.218s0 1.744.143 2.217a3.33 3.33 0 0 0 2.223 2.222Zm-14.033-15.69h-2.5c-3.143 0-4.714 0-5.69.976C5 21.119 5 22.691 5 25.833v2.5c0 3.143 0 4.714.976 5.69.977.977 2.548.977 5.69.977h2.5c3.143 0 4.715 0 5.691-.976.976-.977.976-2.548.976-5.69v-2.5c0-3.143 0-4.715-.976-5.691s-2.548-.976-5.69-.976Z"/></svg>